<?xml version="1.0" encoding="UTF-8"?>
<svg version="1.1" xmlns="http://www.w3.org/2000/svg" width="358" height="358">
<path d="M0 0 C0.66 0.99 1.32 1.98 2 3 C5.06556598 3.73343428 5.06556598 3.73343428 8 4 C8 4.66 8 5.32 8 6 C8.763125 6.144375 9.52625 6.28875 10.3125 6.4375 C13 7 13 7 16 8 C16 8.66 16 9.32 16 10 C17.0828125 10.37125 17.0828125 10.37125 18.1875 10.75 C24.41533442 13.51792641 28.42331213 18.3215471 32 24 C32 24.66 32 25.32 32 26 C32.66 26 33.32 26 34 26 C34.64216096 27.55552581 35.26235564 29.12011424 35.875 30.6875 C36.22304688 31.55761719 36.57109375 32.42773438 36.9296875 33.32421875 C40.70173538 46.27858755 40.27943783 59.42421793 40.24291992 72.78515625 C40.24399437 75.07449905 40.24593547 77.36384157 40.24867249 79.65318298 C40.25349572 85.83646316 40.24589827 92.01967052 40.23571944 98.20294189 C40.22690397 104.68281973 40.22869702 111.16269552 40.2290802 117.64257812 C40.22814556 128.51319614 40.21954037 139.38378559 40.20581055 150.25439453 C40.19169981 161.43245959 40.18464102 172.61050014 40.18530273 183.78857422 C40.18534269 184.47830177 40.18538265 185.16802932 40.18542381 185.8786577 C40.18546417 186.56721585 40.18550452 187.25577401 40.1855461 187.96519756 C40.18627084 201.35804356 40.17928615 214.75087565 40.1700995 228.14371872 C40.16796774 232.00182897 40.16725828 235.85993731 40.16686058 239.7180481 C40.1658572 245.77228988 40.15976095 251.82650592 40.14969444 257.88073921 C40.14677076 260.10397751 40.14554381 262.32721877 40.14612198 264.55045891 C40.14661186 267.58054176 40.14096508 270.61055222 40.13371277 273.640625 C40.13526137 274.52378419 40.13680997 275.40694338 40.1384055 276.31686497 C40.12244496 280.34391537 40.00876829 284.07066334 39 288 C38.34 288 37.68 288 37 288 C36.87882812 288.77085937 36.75765625 289.54171875 36.6328125 290.3359375 C36.46523438 291.33882813 36.29765625 292.34171875 36.125 293.375 C35.88136719 294.87160156 35.88136719 294.87160156 35.6328125 296.3984375 C35 299 35 299 33 301 C32.67 301.66 32.34 302.32 32 303 C31.484375 303.474375 30.96875 303.94875 30.4375 304.4375 C28.66147173 306.01410534 28.66147173 306.01410534 29 309 C28.01 309.33 27.02 309.66 26 310 C26.33 311.32 26.66 312.64 27 314 C26.34 314 25.68 314 25 314 C24.34 313.34 23.68 312.68 23 312 C22.5875 312.825 22.175 313.65 21.75 314.5 C21.1725 315.325 20.595 316.15 20 317 C18.68 317 17.36 317 16 317 C14.29319053 318.62553283 12.62339805 320.29115995 11 322 C10.34 322 9.68 322 9 322 C9 321.34 9 320.68 9 320 C8.34 320 7.68 320 7 320 C6.67 320.66 6.34 321.32 6 322 C0.82544988 323.30147376 -4.42009745 323.13731557 -9.71896362 323.12025452 C-10.69189208 323.12110894 -11.66482054 323.12196337 -12.66723168 323.12284368 C-15.92384382 323.1244894 -19.18040433 323.11899196 -22.43701172 323.11352539 C-24.77284239 323.1132433 -27.10867316 323.11340169 -29.44450378 323.1139679 C-35.78486313 323.114255 -42.12520358 323.10837219 -48.46555853 323.10139394 C-54.42060816 323.09577906 -60.37565707 323.09477081 -66.330709 323.09374207 C-78.12379654 323.09155486 -89.91687715 323.08490376 -101.70996094 323.07543945 C-113.16406215 323.06625676 -124.61816148 323.05918012 -136.07226562 323.05493164 C-136.77860724 323.05466892 -137.48494885 323.05440619 -138.21269475 323.05413551 C-141.75629582 323.05283045 -145.2998969 323.05156674 -148.84349799 323.05032361 C-178.22900313 323.03996132 -207.61450149 323.02227754 -237 323 C-237.33 323.99 -237.66 324.98 -238 326 C-238.99 325.67 -239.98 325.34 -241 325 C-240.34 325 -239.68 325 -239 325 C-239 324.34 -239 323.68 -239 323 C-239.99 323.33 -240.98 323.66 -242 324 C-242 323.34 -242 322.68 -242 322 C-242.9075 322.185625 -243.815 322.37125 -244.75 322.5625 C-247.70496157 322.96028329 -249.30130427 323.15658389 -252 322 C-252.99 320.515 -252.99 320.515 -254 319 C-254.763125 318.87625 -255.52625 318.7525 -256.3125 318.625 C-260.01535529 317.76387086 -261.43954999 315.75248376 -264 313 C-264.9075 312.278125 -265.815 311.55625 -266.75 310.8125 C-269 309 -269 309 -270 307 C-271.89533342 306.53476937 -271.89533342 306.53476937 -274.0625 306.375 C-275.361875 306.25125 -276.66125 306.1275 -278 306 C-277.34 305.67 -276.68 305.34 -276 305 C-275.34227572 301.97065509 -275.34227572 301.97065509 -275 299 C-275.99 298.67 -276.98 298.34 -278 298 C-278.12375 297.2575 -278.2475 296.515 -278.375 295.75 C-278.87755542 293.03427622 -278.87755542 293.03427622 -280.0625 290.875 C-281 289 -281 289 -281 286 C-281.0062551 284.62980161 -281.01343135 283.25960731 -281.02120399 281.88941669 C-281.02827918 280.62860986 -281.02827918 280.62860986 -281.03549731 279.34233218 C-281.0407525 278.41880913 -281.04600768 277.49528607 -281.05142212 276.54377747 C-281.06285211 274.50299587 -281.07427014 272.46221421 -281.0856781 270.4214325 C-281.09489194 268.77859818 -281.09489194 268.77859818 -281.10429192 267.1025753 C-281.19749376 250.44508905 -281.28773662 233.78759096 -281.37069702 217.13005066 C-281.37407234 216.45236648 -281.37744765 215.77468231 -281.38092525 215.07646225 C-281.41577966 208.06812449 -281.4502418 201.05978487 -281.48431293 194.05144327 C-281.5018328 190.44990385 -281.51944318 186.84836488 -281.53710938 183.24682617 C-281.54238223 182.17141141 -281.54238223 182.17141141 -281.5477616 181.07427111 C-281.60490504 169.46271736 -281.66919678 157.85121359 -281.736111 146.23971251 C-281.80466508 134.31572068 -281.86548022 122.39170738 -281.91914403 110.46763915 C-281.94949146 103.77383654 -281.98365304 97.08009922 -282.02626419 90.38636208 C-282.0662456 84.08850372 -282.09668546 77.79067129 -282.11981392 71.49272919 C-282.12998092 69.18204875 -282.14363158 66.87138059 -282.16103554 64.56074333 C-282.18428907 61.40416782 -282.19496458 58.24778725 -282.20254517 55.09114075 C-282.2122618 54.1787713 -282.22197843 53.26640185 -282.2319895 52.32638484 C-282.22880648 46.8783186 -281.53361057 42.23345041 -280 37 C-280.66 37 -281.32 37 -282 37 C-281.625 35.0625 -281.625 35.0625 -281 33 C-279.66666667 32.33333333 -278.33333333 31.66666667 -277 31 C-275.77922978 27.47333049 -275.49598013 23.68442382 -275 20 C-274.01 20.33 -273.02 20.66 -272 21 C-271.34 20.01 -270.68 19.02 -270 18 C-270.66 17.34 -271.32 16.68 -272 16 C-271.01 15.34 -270.02 14.68 -269 14 C-269 13.34 -269 12.68 -269 12 C-268.40574219 12.21011719 -267.81148438 12.42023437 -267.19921875 12.63671875 C-264.67060492 13.31522235 -264.67060492 13.31522235 -261.8125 10.8125 C-261.19890625 10.3484375 -260.5853125 9.884375 -259.953125 9.40625 C-246.30968823 -0.41702448 -226.46273484 1.71553046 -210.48510742 1.77294922 C-208.26104233 1.77351454 -206.03697686 1.77319442 -203.81291199 1.77206421 C-197.82208021 1.77149431 -191.8313298 1.78319035 -185.84051681 1.79721212 C-179.55858389 1.80978487 -173.27664875 1.81089527 -166.9947052 1.81326294 C-156.46317243 1.81875777 -145.93166454 1.83121876 -135.40014648 1.84912109 C-124.56844224 1.86751431 -113.73674604 1.88165512 -102.9050293 1.89013672 C-102.23586808 1.89066217 -101.56670687 1.89118761 -100.87726804 1.89172898 C-97.51927152 1.89433967 -94.16127494 1.89686708 -90.80327833 1.89935279 C-64.9447594 1.91876142 -39.08626771 1.94964161 -13.22777432 1.99067581 C-6.32600327 2.21869605 -6.32600327 2.21869605 0 0 Z M-274 302 C-274.33 302.99 -274.66 303.98 -275 305 C-274.01 304.67 -273.02 304.34 -272 304 C-272.66 303.34 -273.32 302.68 -274 302 Z " fill="#FCFDFD" transform="translate(302,18)"/>
<path d="M0 0 C-2.89659817 5.93607787 -5.11369339 9.83004944 -11.5078125 12.421875 C-15.94897166 13.84109871 -20.46008892 14.94720083 -25 16 C-25.81919922 16.19223145 -26.63839844 16.38446289 -27.48242188 16.58251953 C-39.47278399 19.35078619 -51.08385766 21.15077201 -63.41796875 21.16796875 C-64.70843864 21.17296135 -64.70843864 21.17296135 -66.02497864 21.17805481 C-67.83248365 21.1830783 -69.63999778 21.18546457 -71.44750977 21.18530273 C-74.16373572 21.18748094 -76.87954912 21.20566347 -79.59570312 21.22460938 C-89.93091007 21.25828223 -99.78500535 20.69589576 -110 19 C-110.90661377 18.86988525 -111.81322754 18.73977051 -112.74731445 18.60571289 C-126.22623379 16.62244966 -126.22623379 16.62244966 -130.47265625 12.73828125 C-131.94027615 10.52817753 -133.07714485 8.48216213 -134 6 C-127.10989217 6.84349326 -120.4507567 8.46937723 -113.70898438 10.09570312 C-100.84496666 13.11028293 -88.19674977 14.40957563 -75 14.375 C-74.28410706 14.37512085 -73.56821411 14.3752417 -72.83062744 14.37536621 C-60.21876631 14.34523871 -48.2564441 13.02716223 -36 10 C-35.30326172 9.8345166 -34.60652344 9.6690332 -33.88867188 9.49853516 C-23.60950197 7.03424736 -10.41601696 0 0 0 Z " fill="#1491B0" transform="translate(250,183)"/>
<path d="M0 0 C2.977088 1.32744616 4.91757444 2.74009299 7.125 5.125 C13.63623812 11.81749314 20.98446687 17.25005444 29 22 C24.99031073 23.33656309 22.35176112 22.01711248 18.5 20.75 C-10.86189117 11.84259923 -43.15984442 12.69686553 -73 19 C-74.8902537 19.37945851 -76.78086745 19.7571288 -78.671875 20.1328125 C-80.11460823 20.42175074 -81.55732633 20.71076456 -83 21 C-71.74401758 9.22347432 -51.0787672 6.15846962 -35.53149414 5.61352539 C-19.64544933 5.32210229 -3.76277229 8.04952086 11 14 C10.31164062 13.22076172 10.31164062 13.22076172 9.609375 12.42578125 C0 1.50420168 0 1.50420168 0 0 Z " fill="#EF9048" transform="translate(271,215)"/>
<path d="M0 0 C0.19335938 0.55429688 0.38671875 1.10859375 0.5859375 1.6796875 C0.84632813 2.40414062 1.10671875 3.12859375 1.375 3.875 C1.63023437 4.59429687 1.88546875 5.31359375 2.1484375 6.0546875 C2.93877783 8.18157994 2.93877783 8.18157994 5 10 C7.06874034 10.6425235 7.06874034 10.6425235 9 11 C9.13567574 27.36458189 8.83058235 43.65564152 8 60 C7.34 59.67 6.68 59.34 6 59 C5.50848377 56.53642475 5.11047772 54.10785353 4.75 51.625 C3.0884178 41.61759149 -1.09713816 30.98448931 -9.64453125 24.8125 C-10.19496094 24.420625 -10.74539062 24.02875 -11.3125 23.625 C-14 21 -14 21 -14.5625 17.125 C-14.18964549 12.20332048 -12.1844536 8.3689072 -10 4 C-9.34 4 -8.68 4 -8 4 C-7.67 3.01 -7.34 2.02 -7 1 C-4.53721199 -0.231394 -2.7204945 -0.07159196 0 0 Z " fill="#396A97" transform="translate(170,132)"/>
<path d="M0 0 C3.82561437 0.26083734 5.52732694 0.51419714 8.25 3.3125 C11.52858804 8.3474745 12.79546589 12.1293869 12.70703125 18.19921875 C11.55456926 22.76449634 8.39816716 24.39220398 4.671875 26.9921875 C-4.00048757 33.50913832 -8.68890093 44.9750988 -10.6328125 55.390625 C-10.75398437 56.25171875 -10.87515625 57.1128125 -11 58 C-11.33 58 -11.66 58 -12 58 C-12.02481154 52.28914706 -12.04291275 46.57832586 -12.05493164 40.86743164 C-12.05994485 38.92667087 -12.06675712 36.98591384 -12.07543945 35.04516602 C-12.08763732 32.24754916 -12.09325855 29.44998245 -12.09765625 26.65234375 C-12.10281754 25.7916478 -12.10797882 24.93095184 -12.11329651 24.04417419 C-12.11373582 19.27297532 -12.09198712 14.65891683 -11 10 C-8.68745988 8.95281202 -6.3514852 7.95653635 -4 7 C-2.25113005 4.76083991 -1.22310543 2.59298352 0 0 Z " fill="#3F6D97" transform="translate(194,133)"/>
<path d="M0 0 C0 0.99 0 1.98 0 3 C-0.66 3 -1.32 3 -2 3 C-2.2475 3.556875 -2.495 4.11375 -2.75 4.6875 C-4.89594159 8.65749195 -7.79982569 11.85452952 -11 15 C-10.36835937 14.74605469 -9.73671875 14.49210938 -9.0859375 14.23046875 C4.06638497 9.17042538 16.72312312 7.40952229 30.6875 7.5 C31.43223572 7.50209473 32.17697144 7.50418945 32.9442749 7.50634766 C51.85562687 7.61579949 66.53253411 11.84636034 83 21 C79.84899513 22.05033496 78.94429142 21.97431663 75.82421875 21.29296875 C74.57995117 21.0309668 74.57995117 21.0309668 73.31054688 20.76367188 C72.44494141 20.57353516 71.57933594 20.38339844 70.6875 20.1875 C56.22948496 17.05134482 42.26524416 15.59364778 27.5 15.625 C26.66738647 15.62454681 25.83477295 15.62409363 24.97692871 15.62362671 C8.73577393 15.64953557 -6.3838332 17.35801436 -21.84472656 22.51831055 C-24 23 -24 23 -27 22 C-26.16597656 21.3709375 -25.33195312 20.741875 -24.47265625 20.09375 C-18.3158785 15.41955001 -12.35079018 10.69666017 -6.70703125 5.3984375 C-5 4 -5 4 -3 4 C-2.67 3.01 -2.34 2.02 -2 1 C-1.34 0.67 -0.68 0.34 0 0 Z " fill="#F08C42" transform="translate(91,214)"/>
<path d="M0 0 C1.6640625 1.1015625 1.6640625 1.1015625 4.1640625 3.1015625 C-7.20469513 14.47032013 -38.04873049 11.39292909 -53.03192139 11.4180603 C-65.50555557 11.39061645 -77.5747965 10.52367121 -89.8359375 8.1015625 C-90.83753906 7.90433594 -91.83914062 7.70710938 -92.87109375 7.50390625 C-93.51949219 7.37113281 -94.16789063 7.23835938 -94.8359375 7.1015625 C-93.87747644 4.70540985 -93.24403677 3.36163988 -91.03808594 1.95581055 C-88.51436304 0.9768187 -87.0260829 1.00170463 -84.3515625 1.30859375 C-83.07152344 1.4468457 -83.07152344 1.4468457 -81.765625 1.58789062 C-80.88132813 1.69552734 -79.99703125 1.80316406 -79.0859375 1.9140625 C-77.78269531 2.05811523 -77.78269531 2.05811523 -76.453125 2.20507812 C-73.2141963 2.56739072 -69.97875274 2.94289019 -66.75048828 3.39111328 C-49.30208675 5.79402986 -30.49603054 4.4072577 -13.45703125 0.0234375 C-8.90417162 -1.13565082 -4.4351518 -2.17039343 0 0 Z " fill="#1893B1" transform="translate(224.8359375,79.8984375)"/>
<path d="M0 0 C2.31 0 4.62 0 7 0 C7.19335938 0.62648437 7.38671875 1.25296875 7.5859375 1.8984375 C7.84632813 2.71570313 8.10671875 3.53296875 8.375 4.375 C8.63023437 5.18710938 8.88546875 5.99921875 9.1484375 6.8359375 C9.89854283 9.16459185 9.89854283 9.16459185 12 11 C13.32 7.37 14.64 3.74 16 0 C18.875 -0.1875 18.875 -0.1875 22 0 C24.00293347 3.00440021 24.49271626 4.70993945 25.125 8.1875 C25.29257813 9.08855469 25.46015625 9.98960937 25.6328125 10.91796875 C25.75398438 11.60503906 25.87515625 12.29210937 26 13 C26.66 13 27.32 13 28 13 C28.13277344 12.31292969 28.26554687 11.62585938 28.40234375 10.91796875 C28.57894531 10.01691406 28.75554687 9.11585938 28.9375 8.1875 C29.11152344 7.29417969 29.28554687 6.40085937 29.46484375 5.48046875 C30 3 30 3 31 0 C33.31 0 35.62 0 38 0 C36.82981326 5.9573143 35.23930991 11.70842209 33.4375 17.5 C33.21553955 18.21865234 32.9935791 18.93730469 32.76489258 19.67773438 C31.12575354 24.87424646 31.12575354 24.87424646 30 26 C28.00041636 26.04080783 25.99954746 26.04254356 24 26 C22.13459373 21.29593201 20.63156995 17.05255964 20 12 C19.34 12 18.68 12 18 12 C17.87882812 12.67546875 17.75765625 13.3509375 17.6328125 14.046875 C17.46523437 14.93890625 17.29765625 15.8309375 17.125 16.75 C16.96257812 17.63171875 16.80015625 18.5134375 16.6328125 19.421875 C16.03203736 21.86947744 15.22002883 23.80599857 14 26 C12.02 26 10.04 26 8 26 C6.6618184 22.04328884 5.330278 18.08437472 4 14.125 C3.6184375 12.99707031 3.236875 11.86914062 2.84375 10.70703125 C2.4828125 9.63066406 2.121875 8.55429687 1.75 7.4453125 C1.41484375 6.45031738 1.0796875 5.45532227 0.734375 4.43017578 C0 2 0 2 0 0 Z " fill="#F08F45" transform="translate(194,250)"/>
<path d="M0 0 C0.48616916 3.40318413 0.19821586 4.71976379 -1.8125 7.5625 C-9.20917878 14.13960218 -21.77892664 15.76197357 -31.12817383 18.43701172 C-32.7281664 18.91824074 -34.30504664 19.4752072 -35.875 20.046875 C-40.25268118 21.38206776 -44.66105521 21.99582458 -49.1875 22.625 C-50.11844482 22.75688721 -51.04938965 22.88877441 -52.00854492 23.0246582 C-58.3619851 23.88284138 -64.58422819 24.40568112 -71 24 C-70.05569604 19.36432601 -70.05569604 19.36432601 -68 17 C-64.41777859 15.86361092 -60.7769724 15.62600708 -57.04833984 15.25097656 C-40.04568681 13.16769559 -22.84663482 8.14178552 -6.94848633 1.87939453 C-2.17586215 0 -2.17586215 0 0 0 Z " fill="#1993B2" transform="translate(258,161)"/>
<path d="M0 0 C2.51625 -0.103125 5.0325 -0.20625 7.625 -0.3125 C8.79603271 -0.38078003 8.79603271 -0.38078003 9.99072266 -0.45043945 C13.90201728 -0.52739435 16.35690114 -0.15164963 19.48828125 2.296875 C22 5 22 5 22.5625 8.5625 C21.97611742 12.14594908 21.12906232 13.2229622 19 16 C19.2769131 19.59987035 20.58505042 22.69845097 22 26 C18.8125 26.4375 18.8125 26.4375 15 26 C13.38409466 24.32837378 12.29590952 22.64251835 11.140625 20.62890625 C10.01210788 18.67308169 10.01210788 18.67308169 7 18 C7 20.64 7 23.28 7 26 C4.69 26 2.38 26 0 26 C0 17.42 0 8.84 0 0 Z " fill="#EF8E44" transform="translate(120,250)"/>
<path d="M0 0 C0 2.31 0 4.62 0 7 C-6.77411903 11.46100522 -14.33820541 13.56625348 -22 16 C-23.60530263 16.53829075 -25.20969922 17.0793049 -26.8125 17.625 C-28.20730335 18.0864583 -29.60314598 18.54478687 -31 19 C-32.17755859 19.38478516 -32.17755859 19.38478516 -33.37890625 19.77734375 C-42.17291122 22.54353311 -50.75579677 24.34883786 -60 24 C-54.08123756 15.59917589 -46.2597515 13.81458492 -36.50390625 11.80859375 C-28.06518887 9.86119743 -20.05181914 6.97041205 -12 3.8125 C-10.14701774 3.08681216 -8.2929053 2.36400136 -6.4375 1.64453125 C-5.63183594 1.32846924 -4.82617188 1.01240723 -3.99609375 0.68676758 C-2 0 -2 0 0 0 Z " fill="#1692B1" transform="translate(260,141)"/>
<path d="M0 0 C14.19642857 -0.66964286 14.19642857 -0.66964286 17.875 1.8125 C20.97909944 6.46864916 20.9714739 10.56301164 20 16 C17.90219061 19.61691275 16.95125774 20.68291409 13 22 C8.66328697 22.13501597 4.33988266 22.04296914 0 22 C0 14.74 0 7.48 0 0 Z " fill="#3C6B97" transform="translate(120,285)"/>
<path d="M0 0 C2.31 0 4.62 0 7 0 C10.48761601 8.61441155 13.9023485 17.2354684 17 26 C14.36 26 11.72 26 9 26 C8.67 24.68 8.34 23.36 8 22 C4.7 22 1.4 22 -2 22 C-2.33 23.32 -2.66 24.64 -3 26 C-5.31 26 -7.62 26 -10 26 C-8.74236941 16.68524157 -4.29410676 8.27013154 0 0 Z " fill="#EF9048" transform="translate(154,250)"/>
<path d="M0 0 C1.546875 0.185625 1.546875 0.185625 3.125 0.375 C6.12999839 4.45378448 7.89600265 9.27629038 9.8125 13.9375 C10.29299805 15.06961914 10.29299805 15.06961914 10.78320312 16.22460938 C11.08548828 16.95615234 11.38777344 17.68769531 11.69921875 18.44140625 C11.97338623 19.10084229 12.24755371 19.76027832 12.5300293 20.43969727 C13.125 22.375 13.125 22.375 13.125 26.375 C11.145 26.375 9.165 26.375 7.125 26.375 C6.465 25.055 5.805 23.735 5.125 22.375 C1.825 22.375 -1.475 22.375 -4.875 22.375 C-5.205 23.695 -5.535 25.015 -5.875 26.375 C-8.185 26.375 -10.495 26.375 -12.875 26.375 C-12.28372372 21.59369184 -10.89270306 17.70573134 -8.9375 13.3125 C-6.77366263 8.4366853 -6.77366263 8.4366853 -4.74609375 3.50390625 C-3.47494268 0.39728144 -3.46952456 0.45254668 0 0 Z " fill="#EF914A" transform="translate(243.875,249.625)"/>
<path d="M0 0 C0.66 1.98 1.32 3.96 2 6 C-34.22877149 19.9520301 -34.22877149 19.9520301 -52 19 C-52 16.69 -52 14.38 -52 12 C-50.99324219 11.84144531 -49.98648438 11.68289062 -48.94921875 11.51953125 C-40.84672427 10.19396978 -32.88023325 8.58787167 -24.9375 6.5 C-24.16559326 6.29866455 -23.39368652 6.0973291 -22.59838867 5.88989258 C-17.6006596 4.54308266 -12.82602993 2.87015153 -8 1 C-5.07175348 0.02391783 -3.04386724 -0.08226668 0 0 Z " fill="#1692B2" transform="translate(251,108)"/>
<path d="M0 0 C1.134375 0.020625 2.26875 0.04125 3.4375 0.0625 C13.4375 21.29654255 13.4375 21.29654255 13.4375 26.0625 C11.1275 26.0625 8.8175 26.0625 6.4375 26.0625 C5.7775 24.7425 5.1175 23.4225 4.4375 22.0625 C1.4675 22.0625 -1.5025 22.0625 -4.5625 22.0625 C-5.2225 23.3825 -5.8825 24.7025 -6.5625 26.0625 C-8.5425 26.0625 -10.5225 26.0625 -12.5625 26.0625 C-11.99229207 20.15451224 -10.27664333 15.17395154 -8.0625 9.6875 C-7.74152344 8.86894531 -7.42054687 8.05039062 -7.08984375 7.20703125 C-4.26296826 0.07478892 -4.26296826 0.07478892 0 0 Z " fill="#EF8E45" transform="translate(103.5625,249.9375)"/>
<path d="M0 0 C0.66 0.33 1.32 0.66 2 1 C2.55525555 5.2199422 1.76397608 7.70951527 -0.25 11.3125 C-4.04447484 18.4392332 -5.42474204 26.14829405 -7 34 C-7.22816406 35.11375 -7.45632812 36.2275 -7.69140625 37.375 C-9.66982571 48.00035765 -10.65390535 59.17747824 -4.8984375 68.8515625 C-2.14776677 72.45405384 0.75107957 74.52921985 5 76 C15.06218095 77.15889835 24.4815224 73.40501809 32.9375 68.1875 C33.9584375 67.5996875 33.9584375 67.5996875 35 67 C35.99 67.495 35.99 67.495 37 68 C26.34463967 75.39955579 18.20426895 79.78646116 5 79 C-0.38006305 78.01365511 -4.43728947 76.20066145 -8 72 C-11.98226467 65.86022805 -13.80154966 60.25446241 -14 53 C-14.12761719 51.41832031 -14.12761719 51.41832031 -14.2578125 49.8046875 C-15.14059725 32.03384668 -7.48381378 15.72740561 0 0 Z " fill="#EA9857" transform="translate(95,109)"/>
<path d="M0 0 C3.10934469 0.70589314 5.9939702 1.72103923 8.96875 2.86328125 C15.05134916 5.09780846 21.19884928 6.69919139 27.5 8.1875 C29.07587891 8.57711914 29.07587891 8.57711914 30.68359375 8.97460938 C36.72274306 10.41907834 42.51358354 11.36305041 48.72192383 11.64208984 C51.28715581 12.04511525 52.33553749 12.65240584 54.1875 14.4375 C56 17 56 17 56 19 C38.11771876 20.10738898 15.92525041 16.38678985 0 8 C0 5.36 0 2.72 0 0 Z " fill="#1491B1" transform="translate(107,147)"/>
<path d="M0 0 C0.65698883 0.00043304 1.31397766 0.00086609 1.99087524 0.00131226 C16.06934544 0.05142712 29.55244001 2.28030786 43.25 5.5 C44.35939941 5.75313965 45.46879883 6.0062793 46.61181641 6.26708984 C47.6951123 6.52312988 48.7784082 6.77916992 49.89453125 7.04296875 C51.36369995 7.38944458 51.36369995 7.38944458 52.86254883 7.74291992 C55.25 8.5 55.25 8.5 57.25 10.5 C56.31542969 10.37882813 55.38085938 10.25765625 54.41796875 10.1328125 C50.03093949 9.56956755 45.64057732 9.03475733 41.25 8.5 C40.15921898 8.36470886 40.15921898 8.36470886 39.04640198 8.22668457 C26.79587728 6.72857462 14.71256765 6.13878875 2.375 6.1875 C1.50624237 6.18799347 0.63748474 6.18848694 -0.25759888 6.18899536 C-12.58679503 6.21038079 -24.55075522 6.76901488 -36.68310547 9.13623047 C-40.35098357 9.78177008 -44.04599952 10.12412606 -47.75 10.5 C-44.51218442 7.72698033 -41.52739031 6.63214957 -37.4375 5.5 C-36.34824219 5.190625 -35.25898437 4.88125 -34.13671875 4.5625 C-22.63678107 1.6839317 -11.89115504 -0.05762335 0 0 Z " fill="#1F93B1" transform="translate(113.75,234.5)"/>
<path d="M0 0 C-4.80606881 2.85208629 -9.70079096 5.42460904 -14.8125 7.6875 C-15.70582031 8.08324219 -16.59914062 8.47898438 -17.51953125 8.88671875 C-36.01452201 14.80262489 -58.52142869 14.78480277 -76 6 C-76.66 5.34 -77.32 4.68 -78 4 C-77.30261719 4.0721875 -76.60523438 4.144375 -75.88671875 4.21875 C-52.96113694 6.23418576 -29.64479074 6.12059194 -7.30224609 0.23339844 C-2.19405406 -1.09702703 -2.19405406 -1.09702703 0 0 Z " fill="#1692B1" transform="translate(224,211)"/>
<path d="M0 0 C3.125 1 3.125 1 5 2 C4.34 3.98 3.68 5.96 3 8 C-0.3 7.34 -3.6 6.68 -7 6 C-6.67 6.99 -6.34 7.98 -6 9 C-3.99939943 9.91521187 -3.99939943 9.91521187 -1.625 10.5 C1.73660211 11.4197869 3.83716078 12.19305506 6 15 C6.5625 18.375 6.5625 18.375 6 22 C3.38282164 25.15403546 1.80799032 26.6326009 -2.19140625 27.4453125 C-7.7039742 27.72513828 -10.77439457 26.46716343 -15 23 C-14.34 21.35 -13.68 19.7 -13 18 C-9.125 18.875 -9.125 18.875 -8 20 C-5.67182036 20.36760731 -3.3381615 20.70241581 -1 21 C-1.33 20.01 -1.66 19.02 -2 18 C-4.00060057 17.08478813 -4.00060057 17.08478813 -6.375 16.5 C-9.72674729 15.58290954 -11.87650316 14.83356203 -14 12 C-14.4761505 7.71464551 -14.69868227 5.2703314 -12.625 1.5 C-8.54032807 -0.83409824 -4.59431743 -0.51955124 0 0 Z " fill="#EF9048" transform="translate(187,250)"/>
<path d="M0 0 C-3.88986581 1.49610223 -6.15869292 0.31424743 -10 -1 C-38.16318475 -6.77674223 -69.40366624 -5.63439595 -97.66455078 -1.27539062 C-100.13012282 -0.98465623 -102.51965064 -0.95375153 -105 -1 C-96.15409238 -6.89727175 -84.42356146 -7.27392082 -74.13134766 -8.65869141 C-72.02567381 -8.95480329 -72.02567381 -8.95480329 -70.12182617 -9.5234375 C-47.5406513 -14.59517301 -20.87922744 -8.50367149 0 0 Z " fill="#178DAA" transform="translate(299,245)"/>
<path d="M0 0 C0.94746094 0.00386719 1.89492187 0.00773438 2.87109375 0.01171875 C5.56839177 0.31315844 7.24735928 0.93874037 9.5625 2.3125 C9.2325 3.9625 8.9025 5.6125 8.5625 7.3125 C7.5725 7.6425 6.5825 7.9725 5.5625 8.3125 C4.5725 7.6525 3.5825 6.9925 2.5625 6.3125 C1.2425 6.3125 -0.0775 6.3125 -1.4375 6.3125 C-1.7675 7.3025 -2.0975 8.2925 -2.4375 9.3125 C0.8625 9.9725 4.1625 10.6325 7.5625 11.3125 C7.5625 11.9725 7.5625 12.6325 7.5625 13.3125 C8.5525 13.6425 9.5425 13.9725 10.5625 14.3125 C11.46737275 17.84972984 11.84821809 19.6839202 10.3125 23.0625 C8.34830003 25.58789996 6.75924757 27.13697702 3.51171875 27.61328125 C-1.58611455 27.63969489 -4.97468137 27.05884993 -9.4375 24.3125 C-8.93146008 22.14375748 -8.43766187 20.31282373 -7.4375 18.3125 C-6.73625 18.6425 -6.035 18.9725 -5.3125 19.3125 C-2.17746884 20.40294562 0.26813182 20.46572643 3.5625 20.3125 C3.5625 19.6525 3.5625 18.9925 3.5625 18.3125 C2.65757813 18.07466797 2.65757813 18.07466797 1.734375 17.83203125 C-2.1598791 16.69516029 -4.94903031 15.73118831 -8.0625 13.0625 C-9.91715471 9.35319057 -9.53439129 7.26130865 -8.4375 3.3125 C-6.0365774 -0.01954963 -3.9769225 -0.07014924 0 0 Z " fill="#EE9048" transform="translate(77.4375,249.6875)"/>
<path d="M0 0 C0.495 3.465 0.495 3.465 1 7 C-2.95669215 8.44204472 -6.91564323 9.87778926 -10.875 11.3125 C-11.98359375 11.71662109 -13.0921875 12.12074219 -14.234375 12.53710938 C-31.61840543 18.82603803 -31.61840543 18.82603803 -40.625 20.1875 C-41.64851562 20.34605469 -42.67203125 20.50460938 -43.7265625 20.66796875 C-44.85191406 20.83232422 -44.85191406 20.83232422 -46 21 C-46.66 18.69 -47.32 16.38 -48 14 C-40.17667028 11.2618346 -32.25811365 9.28138904 -24.2109375 7.3203125 C-18.06733667 5.74457626 -12.41113442 3.59836827 -6.62890625 0.98828125 C-4 0 -4 0 0 0 Z " fill="#1792B1" transform="translate(257,124)"/>
<path d="M0 0 C2.206875 -0.061875 4.41375 -0.12375 6.6875 -0.1875 C8.54955078 -0.23970703 8.54955078 -0.23970703 10.44921875 -0.29296875 C14.2277711 0.01879299 16.08490305 0.6064364 19 3 C19.5 6.4375 19.5 6.4375 19 10 C18.46375 10.70125 17.9275 11.4025 17.375 12.125 C16.92125 12.74375 16.4675 13.3625 16 14 C16.68931667 16.55711372 16.68931667 16.55711372 18 19 C18.35858516 20.32676508 18.7018576 21.65835921 19 23 C16.25 23.375 16.25 23.375 13 23 C10.875 20.0625 10.875 20.0625 9 17 C6.87880872 16.04768403 6.87880872 16.04768403 5 16 C5 17.98 5 19.96 5 22 C3.35 22 1.7 22 0 22 C0 14.74 0 7.48 0 0 Z " fill="#356794" transform="translate(216,285)"/>
<path d="M0 0 C1.43854237 0.265241 2.87575975 0.53766477 4.3125 0.8125 C5.11300781 0.96332031 5.91351563 1.11414063 6.73828125 1.26953125 C8.60300526 1.6871401 10.46254801 2.13800128 12.29370117 2.68432617 C20.03238222 4.98041835 27.66574431 5.92649363 35.6875 6.6875 C36.97333984 6.81705078 38.25917969 6.94660156 39.58398438 7.08007812 C42.72193009 7.39503922 45.86045325 7.70149831 49 8 C49 8.66 49 9.32 49 10 C45.34267491 13.45414036 42.64488397 14.29293105 37.625 14.375 C23.15742217 13.82334574 9.86636146 10.94889859 -4 7 C-2.79618552 4.50638429 -1.54571278 2.31856917 0 0 Z " fill="#1D94B2" transform="translate(120,95)"/>
<path d="M0 0 C1.875 1.3125 1.875 1.3125 3 3 C3 3.99 3 4.98 3 6 C-0.63517907 7.14964144 -4.27836467 8.27006683 -7.92871094 9.37060547 C-9.34528463 9.80105419 -10.75993081 10.23788396 -12.17285156 10.68017578 C-32.63214587 17.05866165 -32.63214587 17.05866165 -41 15 C-43.85546875 12.4609375 -43.85546875 12.4609375 -46 10 C-30.49591101 6.03741646 -30.49591101 6.03741646 -24.875 5 C-19.56355817 4.00973118 -14.45302498 2.40286068 -9.296875 0.8046875 C-6.0302881 0.00739259 -3.34596376 -0.24731037 0 0 Z " fill="#1B94B2" transform="translate(240,93)"/>
<path d="M0 0 C5.94 0 11.88 0 18 0 C18 1.98 18 3.96 18 6 C14.04 6 10.08 6 6 6 C6 7.32 6 8.64 6 10 C9.3 10 12.6 10 16 10 C16 11.32 16 12.64 16 14 C12.7 14 9.4 14 6 14 C6 15.32 6 16.64 6 18 C9.96 18 13.92 18 18 18 C18 19.98 18 21.96 18 24 C12.06 24 6.12 24 0 24 C0 16.08 0 8.16 0 0 Z " fill="#4B769D" transform="translate(238,284)"/>
<path d="M0 0 C4.1765625 -0.0309375 4.1765625 -0.0309375 8.4375 -0.0625 C9.75512329 -0.07615601 9.75512329 -0.07615601 11.09936523 -0.09008789 C13.06645974 -0.09723091 15.03353621 -0.05031893 17 0 C18 1 18 1 18 6 C14.04 6 10.08 6 6 6 C6 7.32 6 8.64 6 10 C9.3 10 12.6 10 16 10 C16 11.32 16 12.64 16 14 C12.7 14 9.4 14 6 14 C6 15.32 6 16.64 6 18 C9.96 18 13.92 18 18 18 C18 19.98 18 21.96 18 24 C12.06 24 6.12 24 0 24 C0 16.08 0 8.16 0 0 Z " fill="#4A759D" transform="translate(99,284)"/>
<path d="M0 0 C0.5762915 0.16604736 1.15258301 0.33209473 1.74633789 0.50317383 C16.41497962 4.67252157 30.8326111 7.4351275 46 9 C46 10.98 46 12.96 46 15 C42.85136986 15.97531953 40.4353133 15.99399682 37.17578125 15.58203125 C36.23694092 15.4641626 35.29810059 15.34629395 34.33081055 15.22485352 C32.83674683 15.02073853 32.83674683 15.02073853 31.3125 14.8125 C30.29260986 14.67448975 29.27271973 14.53647949 28.22192383 14.39428711 C21.83200087 13.49086869 15.49091941 12.45009744 9.1875 11.0625 C8.48343018 10.91723877 7.77936035 10.77197754 7.05395508 10.62231445 C4.23013832 9.95253809 2.39592191 9.49623636 0.55078125 7.18359375 C-0.07038964 4.72093753 -0.03685963 2.53076676 0 0 Z " fill="#1792B0" transform="translate(118,113)"/>
<path d="M0 0 C1.98 0 3.96 0 6 0 C15 19.06967213 15 19.06967213 15 24 C13.02 24 11.04 24 9 24 C8.505 21.525 8.505 21.525 8 19 C6.54052295 19.06006078 5.08220728 19.1488689 3.625 19.25 C2.81289062 19.29640625 2.00078125 19.3428125 1.1640625 19.390625 C-1.18838927 19.7922092 -1.18838927 19.7922092 -2.2890625 22.046875 C-2.52367187 22.69140625 -2.75828125 23.3359375 -3 24 C-4.98 24 -6.96 24 -9 24 C-6.80148049 15.63019764 -3.50929804 7.88172441 0 0 Z " fill="#44729B" transform="translate(198,284)"/>
<path d="M0 0 C1.98 0 3.96 0 6 0 C6.33 5.94 6.66 11.88 7 18 C8.98 17.34 10.96 16.68 13 16 C13.33 10.72 13.66 5.44 14 0 C15.98 0 17.96 0 20 0 C20.10829314 2.89684158 20.18743954 5.78961019 20.25 8.6875 C20.30027344 9.91243164 20.30027344 9.91243164 20.3515625 11.16210938 C20.41862016 15.30292007 20.35846774 17.4274885 18.109375 21.01953125 C15.26637763 23.68878989 13.5059021 24.22572308 9.6875 24.4375 C8.92824219 24.49808594 8.16898438 24.55867188 7.38671875 24.62109375 C4.38118613 23.8389666 2.83623004 22.35904161 0.97045898 19.90942383 C-0.86946269 16.28929114 -0.51810143 12.59152602 -0.3125 8.625 C-0.27866211 7.37783203 -0.27866211 7.37783203 -0.24414062 6.10546875 C-0.18563654 4.06952647 -0.09596795 2.03452055 0 0 Z " fill="#44719B" transform="translate(144,284)"/>
<path d="M0 0 C0.66 0 1.32 0 2 0 C2.50567729 2.56149628 3.00470132 5.12399465 3.5 7.6875 C3.64308594 8.40873047 3.78617188 9.12996094 3.93359375 9.87304688 C5.19006395 16.42464149 5.62054024 20.42225368 2.25 26.4375 C-3.5570308 37.58590347 -9.21724578 54.13997447 -7 67 C-4.32077644 70.29750592 -1.09429183 70.53473956 3 71 C3 71.66 3 72.32 3 73 C-5.00826446 73.78512397 -5.00826446 73.78512397 -9 70.625 C-12.69977746 65.76904209 -12.52630064 61.97462419 -12 56 C-10.31999141 47.18715492 -7.66138536 38.64323149 -4.875 30.125 C-4.49480713 28.95614258 -4.49480713 28.95614258 -4.10693359 27.76367188 C-2.24601371 22.24601371 -2.24601371 22.24601371 0 20 C0.99 20 1.98 20 3 20 C2.73654691 16.48948756 2.31981097 13.27841044 1 10 C-1.67600448 8.13771933 -3.75288952 7.73321849 -7 7 C-4.66666667 4.66666667 -2.33333333 2.33333333 0 0 Z " fill="#E7A36E" transform="translate(109,98)"/>
<path d="M0 0 C4.38903577 0.65269424 8.54652252 1.6615246 12.8125 2.875 C19.32885077 4.68450042 25.86663667 5.96739194 32.5402832 7.04833984 C37.8204655 7.91023275 37.8204655 7.91023275 40 9 C39.67 10.98 39.34 12.96 39 15 C32.67169431 15.20627772 26.89130595 14.46931649 20.6875 13.25 C19.76557861 13.07243164 18.84365723 12.89486328 17.89379883 12.71191406 C11.35048926 11.39875186 5.12515395 9.69678909 -1 7 C-0.67 4.69 -0.34 2.38 0 0 Z " fill="#1C94B2" transform="translate(113,131)"/>
<path d="M0 0 C7.26 0 14.52 0 22 0 C22 1.98 22 3.96 22 6 C19.36 6 16.72 6 14 6 C14 12.6 14 19.2 14 26 C11.69 26 9.38 26 7 26 C7 19.73 7 13.46 7 7 C4.69 7 2.38 7 0 7 C0 4.69 0 2.38 0 0 Z " fill="#F0924B" transform="translate(256,250)"/>
<path d="M0 0 C1.0209375 0.7425 1.0209375 0.7425 2.0625 1.5 C1.7325 2.82 1.4025 4.14 1.0625 5.5 C-2.93950378 7.10080151 -5.98306236 5.79279692 -9.9375 4.5 C-10.14375 5.758125 -10.35 7.01625 -10.5625 8.3125 C-10.67851562 9.02019531 -10.79453125 9.72789062 -10.9140625 10.45703125 C-11.13327848 12.81755824 -11.13327848 12.81755824 -8.9375 15.5 C-6.02115871 15.7502157 -6.02115871 15.7502157 -2.9375 15.5 C-1.6175 15.5 -0.2975 15.5 1.0625 15.5 C1.3925 16.82 1.7225 18.14 2.0625 19.5 C-0.53528288 22.21072996 -2.741258 22.80620043 -6.375 23 C-10.11165075 22.88937547 -10.80586108 22.60643147 -13.875 20.125 C-14.8959375 18.825625 -14.8959375 18.825625 -15.9375 17.5 C-16.5975 16.84 -17.2575 16.18 -17.9375 15.5 C-18.6646752 10.72262802 -18.64019932 6.70462741 -16.1875 2.5 C-11.22857573 -1.90793268 -6.2125862 -3.17238444 0 0 Z " fill="#46729B" transform="translate(184.9375,285.5)"/>
<path d="M0 0 C2.38574654 0.4224206 4.76159497 0.90407489 7.125 1.4375 C14.05833083 2.93737767 20.90862305 3.65320416 28 4 C28.495 7.465 28.495 7.465 29 11 C20.11081932 11.27530154 11.65454813 10.47939419 2.875 9.125 C1.0496875 8.86396484 1.0496875 8.86396484 -0.8125 8.59765625 C-9.74523878 7.25476122 -9.74523878 7.25476122 -12 5 C-8.05164313 0.21411288 -6.09935774 -0.3990234 0 0 Z " fill="#1A93B1" transform="translate(143,175)"/>
<path d="M0 0 C2.92219863 1.76252296 5.60974927 3.63400131 8.29296875 5.74609375 C9.26878906 6.49375 10.24460938 7.24140625 11.25 8.01171875 C13.48046875 10.49609375 13.48046875 10.49609375 13.8046875 13.79296875 C13.69769531 14.685 13.59070313 15.57703125 13.48046875 16.49609375 C13.15046875 16.49609375 12.82046875 16.49609375 12.48046875 16.49609375 C12.48046875 14.84609375 12.48046875 13.19609375 12.48046875 11.49609375 C10.50046875 11.49609375 8.52046875 11.49609375 6.48046875 11.49609375 C6.48046875 13.14609375 6.48046875 14.79609375 6.48046875 16.49609375 C5.92488281 16.33367187 5.36929688 16.17125 4.796875 16.00390625 C2.27174803 15.4503371 0.00113036 15.36330141 -2.58203125 15.37109375 C-3.43925781 15.36851563 -4.29648438 15.3659375 -5.1796875 15.36328125 C-7.67517326 15.4024424 -7.67517326 15.4024424 -10.51953125 16.49609375 C-10.51953125 14.51609375 -10.51953125 12.53609375 -10.51953125 10.49609375 C-12.82953125 10.49609375 -15.13953125 10.49609375 -17.51953125 10.49609375 C-14.86624751 7.61407865 -11.84453856 5.42998292 -8.64453125 3.18359375 C-7.61585938 2.44496094 -6.5871875 1.70632812 -5.52734375 0.9453125 C-2.51953125 -0.50390625 -2.51953125 -0.50390625 0 0 Z " fill="#41709A" transform="translate(183.51953125,99.50390625)"/>
<path d="M0 0 C1.98 0.66 3.96 1.32 6 2 C5.50398182 5.96814546 4.01849069 8.96526325 2.18359375 12.48046875 C-4.11052701 25.87884463 -8.44909409 42.03451035 -3.5 56.625 C-3.005 57.73875 -2.51 58.8525 -2 60 C-2.66 60 -3.32 60 -4 60 C-10.32390447 49.59615716 -10.55188955 37.7307582 -7.82006836 25.97192383 C-6.95805954 22.62298433 -6.00578664 19.30840602 -5 16 C-4.66331299 14.88238281 -4.66331299 14.88238281 -4.31982422 13.7421875 C-2.92636214 9.14600231 -1.48225903 4.56827374 0 0 Z " fill="#EC904A" transform="translate(99,115)"/>
<path d="M0 0 C9.31609438 4.06788737 14.9152521 13.10108494 19 22 C20.65855126 26.97565377 21.08844661 31.56265705 18.90625 36.44921875 C14.50791672 43.52632415 9.15894472 47.00559129 1 49 C-1.17578125 48.54296875 -1.17578125 48.54296875 -3 48 C-2.26394531 47.78085938 -1.52789062 47.56171875 -0.76953125 47.3359375 C6.91715086 44.83801967 10.37393738 42.75192284 14.3125 35.625 C15.94779964 29.38112865 15.36117203 24.32537205 12.62109375 18.57421875 C10.06672366 14.51800215 6.92798486 10.97267171 3.7097168 7.42895508 C0 3.29652499 0 3.29652499 0 0 Z " fill="#E89B61" transform="translate(261,153)"/>
<path d="M0 0 C2.31 0 4.62 0 7 0 C7 8.58 7 17.16 7 26 C4.69 26 2.38 26 0 26 C0 17.42 0 8.84 0 0 Z " fill="#ED924D" transform="translate(281,250)"/>
<path d="M0 0 C-3.09055955 2.06037303 -3.70926162 2.24799242 -7.19604492 2.22705078 C-8.03668991 2.22689972 -8.8773349 2.22674866 -9.74345398 2.22659302 C-10.64666885 2.21627045 -11.54988373 2.20594788 -12.48046875 2.1953125 C-13.87245232 2.19106766 -13.87245232 2.19106766 -15.29255676 2.18673706 C-18.25766879 2.17553836 -21.22247921 2.15043435 -24.1875 2.125 C-26.19726126 2.1149698 -28.20702726 2.10584402 -30.21679688 2.09765625 C-35.14464753 2.07560004 -40.07227262 2.04107229 -45 2 C-44 0 -44 0 -42.015625 -0.8515625 C-28.79520659 -4.54879816 -12.89606691 -5.07386239 0 0 Z " fill="#2798B3" transform="translate(202,70)"/>
<path d="M0 0 C1.4370809 -0.05422947 2.87475462 -0.09289723 4.3125 -0.125 C5.11300781 -0.14820312 5.91351563 -0.17140625 6.73828125 -0.1953125 C9 0 9 0 12 2 C12 2.99 12 3.98 12 5 C11.443125 4.855625 10.88625 4.71125 10.3125 4.5625 C7.88615805 3.97230872 5.45093655 3.476571 3 3 C2.67 4.32 2.34 5.64 2 7 C3.0725 7.103125 4.145 7.20625 5.25 7.3125 C10.58007117 8.28967972 10.58007117 8.28967972 13 11 C13.5625 13.4375 13.5625 13.4375 13 16 C10.38677659 18.84380195 8.77587857 19.8891602 4.9375 20.4375 C1.70409882 19.95592961 0.25830837 19.34516638 -2 17 C-2 16.01 -2 15.02 -2 14 C1.875 14.875 1.875 14.875 3 16 C4.66617115 16.04063832 6.33388095 16.042721 8 16 C8.33 14.68 8.66 13.36 9 12 C7.9275 11.9175 6.855 11.835 5.75 11.75 C2 11 2 11 -0.5 9.25 C-2 7 -2 7 -1.8125 4.375 C-1 2 -1 2 0 0 Z " fill="#2894AD" transform="translate(177,119)"/>
<path d="M0 0 C23.95904945 -0.76633118 45.52011644 0.84441484 68 10 C65.2329509 11.06424966 64.09230521 11.03093898 61.22558594 10.07006836 C58.06934682 9.02300538 55.31623633 8.5701309 52.015625 8.25390625 C50.91605469 8.13853516 49.81648438 8.02316406 48.68359375 7.90429688 C46.37943825 7.67492986 44.07473137 7.45104074 41.76953125 7.23242188 C40.67511719 7.11576172 39.58070313 6.99910156 38.453125 6.87890625 C37.45442383 6.7816626 36.45572266 6.68441895 35.42675781 6.58422852 C33 6 33 6 31 3 C27.6978772 1.8992924 25.05916721 1.79372928 21.58203125 1.68359375 C20.32841797 1.64169922 19.07480469 1.59980469 17.78320312 1.55664062 C15.81770508 1.49766602 15.81770508 1.49766602 13.8125 1.4375 C12.47720022 1.39429008 11.14191348 1.350675 9.80664062 1.30664062 C6.53786703 1.20043498 3.26901667 1.09839003 0 1 C0 0.67 0 0.34 0 0 Z " fill="#429FB5" transform="translate(231,235)"/>
<path d="M0 0 C0 0.99 0 1.98 0 3 C-0.66 3 -1.32 3 -2 3 C-2.2475 3.556875 -2.495 4.11375 -2.75 4.6875 C-4.88279838 8.63317701 -7.75803677 11.92013493 -11 15 C-10.4225 14.649375 -9.845 14.29875 -9.25 13.9375 C-6.64198224 12.85082593 -5.60582371 13.06934867 -3 14 C-3.99 14.495 -3.99 14.495 -5 15 C-2.36 15.33 0.28 15.66 3 16 C3 16.33 3 16.66 3 17 C1.88882813 17.18175781 0.77765625 17.36351562 -0.3671875 17.55078125 C-7.78501991 18.79514891 -15.00394344 20.01882311 -22.1171875 22.546875 C-24 23 -24 23 -27 22 C-26.16597656 21.3709375 -25.33195312 20.741875 -24.47265625 20.09375 C-18.3158785 15.41955001 -12.35079018 10.69666017 -6.70703125 5.3984375 C-5 4 -5 4 -3 4 C-2.67 3.01 -2.34 2.02 -2 1 C-1.34 0.67 -0.68 0.34 0 0 Z " fill="#EC924E" transform="translate(91,214)"/>
<path d="M0 0 C10.97659324 0.99787211 20.60654827 5.45268598 30 11 C26.84899513 12.05033496 25.94429142 11.97431663 22.82421875 11.29296875 C21.59106934 11.03241699 21.59106934 11.03241699 20.33300781 10.76660156 C19.02348145 10.47994629 19.02348145 10.47994629 17.6875 10.1875 C9.48188713 8.46078465 1.323327 7.04730605 -7 6 C-7 5.67 -7 5.34 -7 5 C-3.535 4.505 -3.535 4.505 0 4 C0 2.68 0 1.36 0 0 Z " fill="#ED944F" transform="translate(144,224)"/>
<path d="M0 0 C3.02481775 0.58815901 6.01642221 1.23004444 9 2 C9.639375 2.144375 10.27875 2.28875 10.9375 2.4375 C13.37996432 3.10362663 15.6649016 4.02704233 18 5 C17.47731534 7.76276177 16.89130413 10.3260876 16 13 C15.34 13 14.68 13 14 13 C13.67 12.34 13.34 11.68 13 11 C11.35 11.33 9.7 11.66 8 12 C7.34 10.68 6.68 9.36 6 8 C3.69 8.33 1.38 8.66 -1 9 C-1 8.34 -1 7.68 -1 7 C0.32 7.33 1.64 7.66 3 8 C2.319375 7.4225 1.63875 6.845 0.9375 6.25 C0.298125 5.5075 -0.34125 4.765 -1 4 C-0.75 1.75 -0.75 1.75 0 0 Z " fill="#E3E8EC" transform="translate(196,55)"/>
<path d="M0 0 C6.3917603 -0.482397 6.3917603 -0.482397 8.8125 1.4375 C10.23614176 4.50956906 10.876852 7.49209924 11.52734375 10.8046875 C12.0735782 13.34174335 12.93296919 15.63728892 14 18 C11.25 18.375 11.25 18.375 8 18 C5.8125 15.125 5.8125 15.125 4 12 C3.01 11.34 2.02 10.68 1 10 C1.66 10 2.32 10 3 10 C3 9.01 3 8.02 3 7 C2.01 6.67 1.02 6.34 0 6 C0 4.02 0 2.04 0 0 Z " fill="#4C78A1" transform="translate(221,290)"/>
<path d="M0 0 C2.977088 1.32744616 4.91757444 2.74009299 7.125 5.125 C13.63623812 11.81749314 20.98446687 17.25005444 29 22 C24.81618633 23.39460456 21.73130397 21.91681843 17.6875 20.625 C12.80242052 19.09077314 8.09288972 17.69632514 3 17 C4.75 14.9375 4.75 14.9375 7 13 C9.140625 13.37890625 9.140625 13.37890625 11 14 C10.54109375 13.48050781 10.0821875 12.96101562 9.609375 12.42578125 C0 1.50420168 0 1.50420168 0 0 Z " fill="#EB9859" transform="translate(271,215)"/>
<path d="M0 0 C0.19335938 0.55429688 0.38671875 1.10859375 0.5859375 1.6796875 C0.84632813 2.40414062 1.10671875 3.12859375 1.375 3.875 C1.63023437 4.59429687 1.88546875 5.31359375 2.1484375 6.0546875 C2.93877783 8.18157994 2.93877783 8.18157994 5 10 C7.06874034 10.6425235 7.06874034 10.6425235 9 11 C9 12.98 9 14.96 9 17 C3.71541239 16.58552254 0.77762551 15.77762551 -3 12 C-5.50797651 8.54072205 -6 7.38746624 -6 3 C-6.66 2.67 -7.32 2.34 -8 2 C-4.77208445 -0.1519437 -3.71599191 -0.20086443 0 0 Z " fill="#D49363" transform="translate(170,132)"/>
<path d="M0 0 C2.97 0.495 2.97 0.495 6 1 C4.33619706 7.50395693 1.02164703 10.91018625 -4.625 14.3125 C-8 16 -8 16 -11 16 C-11 14.02 -11 12.04 -11 10 C-9.9275 9.649375 -8.855 9.29875 -7.75 8.9375 C-3.25917985 7.06101126 -2.02795203 4.29925831 0 0 Z " fill="#EA8E49" transform="translate(194,133)"/>
<path d="M0 0 C1.08410156 -0.01224609 2.16820312 -0.02449219 3.28515625 -0.03710938 C4.32800781 -0.03904297 5.37085938 -0.04097656 6.4453125 -0.04296875 C7.39164551 -0.04707764 8.33797852 -0.05118652 9.31298828 -0.05541992 C11.96709175 0.19623178 13.59990262 0.83722536 15.875 2.1875 C15.875 2.8475 15.875 3.5075 15.875 4.1875 C4.325 3.8575 -7.225 3.5275 -19.125 3.1875 C-18.795 2.5275 -18.465 1.8675 -18.125 1.1875 C-12.2649338 -0.37187355 -6.0202048 0.00360491 0 0 Z " fill="#028BAE" transform="translate(247.125,235.8125)"/>
<path d="M0 0 C3.3 0 6.6 0 10 0 C9.67 4.29 9.34 8.58 9 13 C6.03 13 3.06 13 0 13 C0 12.34 0 11.68 0 11 C1.32 10.67 2.64 10.34 4 10 C4 9.34 4 8.68 4 8 C2.68 8 1.36 8 0 8 C0 7.34 0 6.68 0 6 C1.65 5.67 3.3 5.34 5 5 C4.67 3.68 4.34 2.36 4 1 C3.34 1 2.68 1 2 1 C2 2.32 2 3.64 2 5 C1.34 5 0.68 5 0 5 C0 3.35 0 1.7 0 0 Z " fill="#A7B7C4" transform="translate(264,139)"/>
<path d="M0 0 C-0.66 0 -1.32 0 -2 0 C-2.33 1.32 -2.66 2.64 -3 4 C-1.35 4 0.3 4 2 4 C2 4.33 2 4.66 2 5 C-1.37477931 5.64699006 -4.74986193 6.29238432 -8.125 6.9375 C-9.07632813 7.11990234 -10.02765625 7.30230469 -11.0078125 7.49023438 C-15.66431024 8.3794961 -20.31831669 9.25124594 -25 10 C-22.46491767 7.08160626 -19.63451212 5.63282294 -16.1875 3.9375 C-15.17042969 3.43089844 -14.15335938 2.92429688 -13.10546875 2.40234375 C-4.20446656 -1.61710252 -4.20446656 -1.61710252 0 0 Z " fill="#ED914C" transform="translate(213,226)"/>
<path d="M0 0 C6.875 0.875 6.875 0.875 8 2 C8.27314815 7.73611111 8.27314815 7.73611111 8 10 C7.34 10.66 6.68 11.32 6 12 C4.02 12 2.04 12 0 12 C0 8.04 0 4.08 0 0 Z " fill="#F5F7F8" transform="translate(126,290)"/>
<path d="M0 0 C1.65 0 3.3 0 5 0 C5.05383848 2.45862401 5.09359038 4.9160755 5.125 7.375 C5.14175781 8.07367188 5.15851563 8.77234375 5.17578125 9.4921875 C5.19344267 11.32897486 5.10303261 13.16601963 5 15 C4.34 15.66 3.68 16.32 3 17 C2.01 17 1.02 17 0 17 C0 11.39 0 5.78 0 0 Z " fill="#346693" transform="translate(144,285)"/>
<path d="M0 0 C0.66 0.33 1.32 0.66 2 1 C-8.94053631 8.59759466 -18.42816014 14.02246571 -32.16796875 11.62109375 C-34.0625 11.125 -34.0625 11.125 -37 10 C-37.33 9.34 -37.66 8.68 -38 8 C-36.25 7.375 -36.25 7.375 -34 7 C-33.07380859 7.47566406 -33.07380859 7.47566406 -32.12890625 7.9609375 C-27.5730238 10.18454251 -22.30944294 9.28059491 -17.5 8.25 C-12.11297463 6.32606237 -6.938076 4.19583412 -2.0625 1.1875 C-1.381875 0.795625 -0.70125 0.40375 0 0 Z " fill="#E6A06C" transform="translate(130,176)"/>
<path d="M0 0 C0.33 0 0.66 0 1 0 C1.64610325 6.78408417 0.85529947 10.54704848 -3.22265625 16.0546875 C-7.18408176 20.39048948 -12.33027704 22.61406772 -18 24 C-20.17578125 23.54296875 -20.17578125 23.54296875 -22 23 C-21.26394531 22.78085938 -20.52789062 22.56171875 -19.76953125 22.3359375 C-12.14792417 19.8591669 -8.46409733 17.80498978 -4.75 10.5625 C-3.82439324 7.40001024 -3.3845498 4.26867332 -3 1 C-2.67 1 -2.34 1 -2 1 C-1.67 2.65 -1.34 4.3 -1 6 C-0.67 4.02 -0.34 2.04 0 0 Z " fill="#E99A60" transform="translate(280,178)"/>
<path d="M0 0 C0.33 0 0.66 0 1 0 C1.01458252 0.61931396 1.02916504 1.23862793 1.04418945 1.87670898 C1.11947417 4.73087773 1.21586314 7.58397749 1.3125 10.4375 C1.33505859 11.41138672 1.35761719 12.38527344 1.38085938 13.38867188 C1.61447345 19.73872708 2.61410164 25.10298818 5 31 C4.34 31 3.68 31 3 31 C-1.19058448 24.10581263 -2.18010208 18.99791552 -2.1875 10.875 C-2.19974609 10.15957031 -2.21199219 9.44414062 -2.22460938 8.70703125 C-2.23522218 4.92179791 -2.15088659 3.22632988 0 0 Z " fill="#E59E66" transform="translate(92,144)"/>
<path d="M0 0 C0.66 0.33 1.32 0.66 2 1 C2.67578125 3.07421875 2.67578125 3.07421875 3.3125 5.6875 C4.68260983 10.62413284 6.55679287 13.27761392 10 17 C10 17.66 10 18.32 10 19 C6.6595514 18.72162928 5.27974867 18.27974867 2.875 15.875 C-0.11729655 11.28681196 -2 7.52386177 -2 2 C-1.34 2 -0.68 2 0 2 C0 1.34 0 0.68 0 0 Z " fill="#E99452" transform="translate(84,165)"/>
<path d="M0 0 C10.55808656 -0.3690205 10.55808656 -0.3690205 15 2 C14.34 3.98 13.68 5.96 13 8 C9.7 7.34 6.4 6.68 3 6 C2.67 6.99 2.34 7.98 2 9 C1.875 6.625 1.875 6.625 2 4 C2.66 3.34 3.32 2.68 4 2 C2.68 1.34 1.36 0.68 0 0 Z " fill="#EC9654" transform="translate(177,250)"/>
<path d="M0 0 C3.83641483 1.50716297 5.85990819 3.48413488 8 7 C8.61930796 9.80677185 8.68260109 12.20189967 8 15 C5.5 18 5.5 18 3 20 C2.34 19.67 1.68 19.34 1 19 C1.66 18.34 2.32 17.68 3 17 C3.60447339 12.93354265 3.76661724 9.18186825 1.5 5.6875 C1.005 5.130625 0.51 4.57375 0 4 C0 2.68 0 1.36 0 0 Z " fill="#E7995E" transform="translate(259,170)"/>
<path d="M0 0 C1.8253125 0.0309375 1.8253125 0.0309375 3.6875 0.0625 C3.6875 1.0525 3.6875 2.0425 3.6875 3.0625 C0.1067122 3.76373016 -3.4774217 4.4460758 -7.0625 5.125 C-8.58617188 5.42374023 -8.58617188 5.42374023 -10.140625 5.72851562 C-11.1203125 5.91220703 -12.1 6.09589844 -13.109375 6.28515625 C-14.01010742 6.45797119 -14.91083984 6.63078613 -15.83886719 6.80883789 C-18.3145186 7.062707 -19.96567049 6.8312064 -22.3125 6.0625 C-20.25200145 5.24493762 -18.18901147 4.43365266 -16.125 3.625 C-14.97644531 3.17253906 -13.82789062 2.72007812 -12.64453125 2.25390625 C-8.34462344 0.71642456 -4.55834867 -0.07726015 0 0 Z " fill="#2692B0" transform="translate(88.3125,237.9375)"/>
<path d="M0 0 C3.29714793 0.32971479 4.6226839 0.6226839 7 3 C6.67028521 6.29714793 6.3773161 7.6226839 4 10 C-0.55555556 9.44444444 -0.55555556 9.44444444 -2 8 C-2.1875 5.0625 -2.1875 5.0625 -2 2 C-1.34 1.34 -0.68 0.68 0 0 Z " fill="#8CA1B5" transform="translate(124,72)"/>
<path d="M0 0 C2.875 -0.1875 2.875 -0.1875 6 0 C8 3 8 3 7.9375 5.5625 C7 8 7 8 4.4375 9.3125 C3.2309375 9.6528125 3.2309375 9.6528125 2 10 C0.68 8.02 -0.64 6.04 -2 4 C-1.34 2.68 -0.68 1.36 0 0 Z " fill="#7690A4" transform="translate(131,67)"/>
<path d="M0 0 C4.55555556 0.55555556 4.55555556 0.55555556 6 2 C6.125 5 6.125 5 6 8 C5 9 5 9 2.0625 9.1875 C-1 9 -1 9 -3 7 C-2.67028521 3.70285207 -2.3773161 2.3773161 0 0 Z " fill="#7B94A8" transform="translate(155,57)"/>
<path d="M0 0 C0.33 0 0.66 0 1 0 C1.68271635 7.85123805 -1.49111287 14.12447792 -5 21 C-7 19 -7 19 -7.08203125 17.15234375 C-6.39140127 11.47716693 -5.01072788 6.34929492 -3 1 C-2.67 2.32 -2.34 3.64 -2 5 C-1.34 5 -0.68 5 0 5 C0 3.35 0 1.7 0 0 Z " fill="#EA995A" transform="translate(98,127)"/>
<path d="M0 0 C0.33 0 0.66 0 1 0 C0.35714676 6.23505228 -0.50005935 12.3861106 -1.5625 18.5625 C-1.70107422 19.38041016 -1.83964844 20.19832031 -1.98242188 21.04101562 C-2.3193499 23.02772915 -2.65934584 25.01392199 -3 27 C-3.33 27 -3.66 27 -4 27 C-4 22.05 -4 17.1 -4 12 C-4.66 12.99 -5.32 13.98 -6 15 C-5.49202991 10.6822542 -4.80317221 6.96697886 -3 3 C-2.34 3 -1.68 3 -1 3 C-0.67 2.01 -0.34 1.02 0 0 Z " fill="#ECA26A" transform="translate(89,128)"/>
<path d="M0 0 C4.55555556 0.55555556 4.55555556 0.55555556 6 2 C6.125 5 6.125 5 6 8 C5 9 5 9 2 9.125 C-1 9 -1 9 -2 8 C-2.1875 5.0625 -2.1875 5.0625 -2 2 C-1.34 1.34 -0.68 0.68 0 0 Z " fill="#6F8BA0" transform="translate(217,62)"/>
<path d="M0 0 C1.98 0 3.96 0 6 0 C6.33 5.94 6.66 11.88 7 18 C8.65 18 10.3 18 12 18 C12 18.33 12 18.66 12 19 C10.02 19 8.04 19 6 19 C6 20.32 6 21.64 6 23 C8.64 23 11.28 23 14 23 C14 23.33 14 23.66 14 24 C5.85614849 24.62645012 5.85614849 24.62645012 2.4375 22.125 C1 20 1 20 1 18 C1.99 17.34 2.98 16.68 4 16 C4.38411275 13.390379 4.60293197 10.9941926 4.6875 8.375 C4.72166016 7.66859375 4.75582031 6.9621875 4.79101562 6.234375 C4.87351308 4.49014312 4.93843335 2.74509605 5 1 C3.35 1 1.7 1 0 1 C0 0.67 0 0.34 0 0 Z " fill="#6285A5" transform="translate(144,284)"/>
<path d="M0 0 C2.31 0.66 4.62 1.32 7 2 C7.36923077 8.52307692 7.36923077 8.52307692 5.5 10.9375 C5.005 11.288125 4.51 11.63875 4 12 C3.46375 10.865625 2.9275 9.73125 2.375 8.5625 C0.63257149 5.45370668 0.37723731 5.10881846 -3.25 4.0625 C-4.61125 4.0315625 -4.61125 4.0315625 -6 4 C-2.25 2 -2.25 2 0 2 C0 1.34 0 0.68 0 0 Z " fill="#4A769D" transform="translate(228,286)"/>
<path d="M0 0 C3.375 0.4375 3.375 0.4375 6.375 2.4375 C4.395 3.0975 2.415 3.7575 0.375 4.4375 C0.375 5.0975 0.375 5.7575 0.375 6.4375 C1.365 7.0975 2.355 7.7575 3.375 8.4375 C1.74919034 8.32351335 0.12432843 8.19594341 -1.5 8.0625 C-2.40492188 7.99289063 -3.30984375 7.92328125 -4.2421875 7.8515625 C-6.625 7.4375 -6.625 7.4375 -8.625 5.4375 C-5.80146129 2.01502884 -4.49410608 0.54239211 0 0 Z " fill="#389DB5" transform="translate(139.625,174.5625)"/>
<path d="M0 0 C2.0625 0.4375 2.0625 0.4375 4 1 C4 1.66 4 2.32 4 3 C4.99 3.33 5.98 3.66 7 4 C6.6875 5.875 6.6875 5.875 6 8 C5.01 8.66 4.02 9.32 3 10 C0.4375 7.75 0.4375 7.75 -2 5 C-1.87165745 2.68983403 -1.63394255 1.63394255 0 0 Z " fill="#738EA4" transform="translate(116,79)"/>
<path d="M0 0 C2.33294775 -0.04241723 4.66702567 -0.04092937 7 0 C8 1 8 1 8.125 3.5 C8 6 8 6 7 7 C4.66702567 7.04092937 2.33294775 7.04241723 0 7 C0 4.69 0 2.38 0 0 Z " fill="#FBF1E9" transform="translate(127,256)"/>
<path d="M0 0 C1.98 0.33 3.96 0.66 6 1 C2.90944045 3.06037303 2.29073838 3.24799242 -1.19604492 3.22705078 C-2.03668991 3.22689972 -2.8773349 3.22674866 -3.74345398 3.22659302 C-4.64666885 3.21627045 -5.54988373 3.20594788 -6.48046875 3.1953125 C-7.87245232 3.19106766 -7.87245232 3.19106766 -9.29255676 3.18673706 C-12.25766879 3.17553836 -15.22247921 3.15043435 -18.1875 3.125 C-20.19726126 3.1149698 -22.20702726 3.10584402 -24.21679688 3.09765625 C-29.14464753 3.07560004 -34.07227262 3.04107229 -39 3 C-38.67 2.34 -38.34 1.68 -38 1 C-19.19 1.495 -19.19 1.495 0 2 C0 1.34 0 0.68 0 0 Z " fill="#46A0B6" transform="translate(196,69)"/>
<path d="M0 0 C-5.82185199 3.4821006 -11.48180123 6.10463724 -18 8 C-18 7.34 -18 6.68 -18 6 C-17.01 5.34 -16.02 4.68 -15 4 C-16.32 3.67 -17.64 3.34 -19 3 C-16.21019334 2.30404181 -13.41859396 1.61793326 -10.625 0.9375 C-9.43390625 0.63875977 -9.43390625 0.63875977 -8.21875 0.33398438 C-2.2265625 -1.11328125 -2.2265625 -1.11328125 0 0 Z " fill="#2795AF" transform="translate(224,211)"/>
<path d="M0 0 C11.42523364 2.42523364 11.42523364 2.42523364 14 5 C12.97261719 4.86722656 11.94523437 4.73445312 10.88671875 4.59765625 C2.93454157 3.58056202 -5.00692489 2.64351028 -13 2 C-8.48107986 -1.89353387 -5.5814266 -1.09326913 0 0 Z " fill="#56A4B8" transform="translate(157,240)"/>
<path d="M0 0 C0.66 0 1.32 0 2 0 C2.33 2.31 2.66 4.62 3 7 C3.66 6.01 4.32 5.02 5 4 C5.66 4.33 6.32 4.66 7 5 C5.1875 8 5.1875 8 3 11 C2.01 11 1.02 11 0 11 C-0.33 9.35 -0.66 7.7 -1 6 C-1.33 6.66 -1.66 7.32 -2 8 C-2.66 8 -3.32 8 -4 8 C-2.87548273 5.0280615 -1.77706209 2.66559313 0 0 Z " fill="#7590A5" transform="translate(227,66)"/>
<path d="M0 0 C-1.98 0.99 -1.98 0.99 -4 2 C-4 2.33 -4 2.66 -4 3 C-6.39531756 3.33745354 -8.79114268 3.6700829 -11.1875 4 C-12.19780273 4.14308594 -12.19780273 4.14308594 -13.22851562 4.2890625 C-16.84664577 4.78324613 -20.34796401 5.11346131 -24 5 C-17.79597024 0.86398016 -7.26694894 -2.61610162 0 0 Z " fill="#489DB2" transform="translate(218,239)"/>
<path d="M0 0 C0.99 0 1.98 0 3 0 C4.49821059 3.37097383 5 5.20442119 5 9 C4.34 9 3.68 9 3 9 C3 8.34 3 7.68 3 7 C1.02 7.33 -0.96 7.66 -3 8 C-1.125 1.125 -1.125 1.125 0 0 Z " fill="#879FB2" transform="translate(188,55)"/>
<path d="M0 0 C2.31 0 4.62 0 7 0 C6.34 2.97 5.68 5.94 5 9 C4.67 8.01 4.34 7.02 4 6 C2.35 6.33 0.7 6.66 -1 7 C-0.67 4.69 -0.34 2.38 0 0 Z " fill="#EC9757" transform="translate(225,250)"/>
<path d="M0 0 C2.97 0 5.94 0 9 0 C7.953173 4.18730802 7.1823078 5.29986005 4 8 C3.34 8 2.68 8 2 8 C2 6.02 2 4.04 2 2 C1.34 2 0.68 2 0 2 C0 1.34 0 0.68 0 0 Z " fill="#728FA5" transform="translate(258,111)"/>
<path d="M0 0 C5.53846154 0.61538462 5.53846154 0.61538462 7.875 2.5625 C8.431875 3.2740625 8.431875 3.2740625 9 4 C8.01 4.33 7.02 4.66 6 5 C5.26676204 7.01508358 5.26676204 7.01508358 5 9 C4.34 9 3.68 9 3 9 C0.8125 6.1875 0.8125 6.1875 -1 3 C-0.67 2.01 -0.34 1.02 0 0 Z " fill="#97ACBE" transform="translate(109,87)"/>
<path d="M0 0 C0.66 0.33 1.32 0.66 2 1 C2 1.33 2 1.66 2 2 C4.31 2 6.62 2 9 2 C9 2.33 9 2.66 9 3 C6.23132003 3.69740804 3.46063138 4.38322853 0.6875 5.0625 C-0.49102539 5.36124023 -0.49102539 5.36124023 -1.69335938 5.66601562 C-2.45068359 5.84970703 -3.20800781 6.03339844 -3.98828125 6.22265625 C-5.03302612 6.48187866 -5.03302612 6.48187866 -6.09887695 6.74633789 C-8 7 -8 7 -11 6 C-9.21385682 4.96953278 -7.42089982 3.95086764 -5.625 2.9375 C-4.62726563 2.36902344 -3.62953125 1.80054688 -2.6015625 1.21484375 C-1.74304688 0.81394531 -0.88453125 0.41304687 0 0 Z " fill="#E7A06A" transform="translate(199,229)"/>
<path d="M0 0 C2.97 0 5.94 0 9 0 C9 1.98 9 3.96 9 6 C6.03 6 3.06 6 0 6 C0 5.34 0 4.68 0 4 C1.32 3.67 2.64 3.34 4 3 C4 2.34 4 1.68 4 1 C2.68 0.67 1.36 0.34 0 0 Z " fill="#879CAF" transform="translate(264,146)"/>
<path d="M0 0 C0 1.98 0 3.96 0 6 C-3 7 -3 7 -7 7 C-6.67 6.01 -6.34 5.02 -6 4 C-6.99 3.34 -7.98 2.68 -9 2 C-5.62902617 0.50178941 -3.79557881 0 0 0 Z " fill="#8099AE" transform="translate(270,119)"/>
<path d="M0 0 C0.66 0.33 1.32 0.66 2 1 C-12.64248705 11.16839378 -12.64248705 11.16839378 -18.5 10.75 C-19.7375 10.37875 -19.7375 10.37875 -21 10 C-21 9.67 -21 9.34 -21 9 C-20.030625 8.7525 -19.06125 8.505 -18.0625 8.25 C-12.40710297 6.63253351 -7.06557245 4.27450215 -2.0625 1.1875 C-1.381875 0.795625 -0.70125 0.40375 0 0 Z " fill="#E1B18A" transform="translate(130,176)"/>
<path d="M0 0 C7.42857143 1 7.42857143 1 11 2 C11 2.66 11 3.32 11 4 C6.38 4 1.76 4 -3 4 C-2.01 2.68 -1.02 1.36 0 0 Z " fill="#479DB2" transform="translate(117,170)"/>
<path d="M0 0 C1.4540625 0.0309375 1.4540625 0.0309375 2.9375 0.0625 C2.9375 2.7025 2.9375 5.3425 2.9375 8.0625 C1.6175 7.7325 0.2975 7.4025 -1.0625 7.0625 C-1.18625 6.258125 -1.31 5.45375 -1.4375 4.625 C-1.746875 3.3565625 -1.746875 3.3565625 -2.0625 2.0625 C-2.7225 1.7325 -3.3825 1.4025 -4.0625 1.0625 C-3.0625 0.0625 -3.0625 0.0625 0 0 Z " fill="#D9884D" transform="translate(166.0625,132.9375)"/>
<path d="M0 0 C4.8274799 1.41292095 8.7162359 3.42974154 13 6 C9.19068824 7.26977059 7.18381007 6.52074507 3.3125 5.5625 C2.13300781 5.27503906 0.95351562 4.98757812 -0.26171875 4.69140625 C-1.16535156 4.46324219 -2.06898438 4.23507813 -3 4 C-2.01 3.34 -1.02 2.68 0 2 C0 1.34 0 0.68 0 0 Z " fill="#E6A66F" transform="translate(161,229)"/>
<path d="M0 0 C6.93 0.495 6.93 0.495 14 1 C13.01 1.495 13.01 1.495 12 2 C12 2.66 12 3.32 12 4 C13.32 4.66 14.64 5.32 16 6 C10.23955788 5.39363767 5.27985631 3.24341721 0 1 C0 0.67 0 0.34 0 0 Z " fill="#4BA0B4" transform="translate(146,215)"/>
<path d="M0 0 C2.64 0.66 5.28 1.32 8 2 C8 3.65 8 5.3 8 7 C2.46153846 6.38461538 2.46153846 6.38461538 0.125 4.4375 C-0.24625 3.963125 -0.6175 3.48875 -1 3 C-0.67 2.01 -0.34 1.02 0 0 Z " fill="#F08B42" transform="translate(171,141)"/>
<path d="M0 0 C0.66 0 1.32 0 2 0 C1.40380045 4.86896303 0.43023178 9.32790951 -1 14 C-1.66 14 -2.32 14 -3 14 C-2.88617347 12.04098546 -2.75858875 10.0827662 -2.625 8.125 C-2.55539063 7.03445312 -2.48578125 5.94390625 -2.4140625 4.8203125 C-2 2 -2 2 0 0 Z " fill="#EB9049" transform="translate(106,127)"/>
<path d="M0 0 C0.66 0 1.32 0 2 0 C2.33 2.31 2.66 4.62 3 7 C0.03 6.67 -2.94 6.34 -6 6 C-4 4 -2 2 0 0 Z " fill="#EC8F48" transform="translate(108,99)"/>
<path d="M0 0 C1.65 0 3.3 0 5 0 C5 2 5 4 5 6 C4.34 6 3.68 6 3 6 C3 7.32 3 8.64 3 10 C2.01 10 1.02 10 0 10 C0 6.7 0 3.4 0 0 Z " fill="#A1B3C0" transform="translate(163,55)"/>
<path d="M0 0 C0.33 0 0.66 0 1 0 C1.03738281 1.05058594 1.07476562 2.10117188 1.11328125 3.18359375 C1.45493759 10.96113653 2.00662248 17.71177647 5 25 C4.34 25 3.68 25 3 25 C-0.99428807 19.23305308 -1.44941124 15.45114567 -0.75 8.5625 C-0.68425781 7.73556641 -0.61851563 6.90863281 -0.55078125 6.05664062 C-0.38726405 4.03603525 -0.19642942 2.01767179 0 0 Z " fill="#E8C09F" transform="translate(92,150)"/>
<path d="M0 0 C3.04386724 -0.08226668 5.07175348 0.02391783 8 1 C7.47731534 3.76276177 6.89130413 6.3260876 6 9 C5.34 9 4.68 9 4 9 C2.47551369 6.0173094 1.06059933 3.181798 0 0 Z " fill="#BBC7D2" transform="translate(206,59)"/>
<path d="M0 0 C1.65 0 3.3 0 5 0 C5.33 1.65 5.66 3.3 6 5 C4.68 5 3.36 5 2 5 C2 6.32 2 7.64 2 9 C1.34 9 0.68 9 0 9 C0 6.03 0 3.06 0 0 Z " fill="#869EB0" transform="translate(177,54)"/>
<path d="M0 0 C0.66 1.32 1.32 2.64 2 4 C-2.08678935 7.82312553 -6.52594606 9.95219361 -12 11 C-14.27734375 10.57421875 -14.27734375 10.57421875 -16 10 C-14.89591797 9.67128906 -14.89591797 9.67128906 -13.76953125 9.3359375 C-7.40021703 7.26612072 -3.71543233 5.63720767 0 0 Z " fill="#E2B48E" transform="translate(274,191)"/>
<path d="M0 0 C1.98 0 3.96 0 6 0 C6.33 1.65 6.66 3.3 7 5 C4.69 5 2.38 5 0 5 C0 3.35 0 1.7 0 0 Z " fill="#F2F4F6" transform="translate(222,290)"/>
<path d="M0 0 C0 3.96 0 7.92 0 12 C-0.99 12.495 -0.99 12.495 -2 13 C-3.26237731 10.47524538 -3.09856404 8.68799534 -3.0625 5.875 C-3.05347656 4.96492187 -3.04445313 4.05484375 -3.03515625 3.1171875 C-3.02355469 2.41851562 -3.01195313 1.71984375 -3 1 C-1 0 -1 0 0 0 Z " fill="#E99452" transform="translate(100,153)"/>
<path d="M0 0 C1.875 1.5 1.875 1.5 3 3 C2.34 4.65 1.68 6.3 1 8 C0.67 6.68 0.34 5.36 0 4 C-1.134375 3.87625 -2.26875 3.7525 -3.4375 3.625 C-4.613125 3.41875 -5.78875 3.2125 -7 3 C-7.33 2.34 -7.66 1.68 -8 1 C-5.20129973 -0.39935013 -3.09501208 -0.25265405 0 0 Z " fill="#389DB4" transform="translate(186,127)"/>
<path d="M0 0 C-0.99 0.66 -1.98 1.32 -3 2 C-3 2.33 -3 2.66 -3 3 C-4.58086048 3.36504603 -6.16483907 3.71660506 -7.75 4.0625 C-8.63171875 4.25972656 -9.5134375 4.45695313 -10.421875 4.66015625 C-12.98679028 4.99825872 -14.57091639 4.81158635 -17 4 C-14.92227529 3.13227971 -12.83756823 2.28126381 -10.75 1.4375 C-9.58984375 0.96183594 -8.4296875 0.48617187 -7.234375 -0.00390625 C-4.13733356 -0.95770524 -2.92678299 -1.20983356 0 0 Z " fill="#57A4B3" transform="translate(83,240)"/>
<path d="M0 0 C0.33 0 0.66 0 1 0 C1.29787234 8.78723404 1.29787234 8.78723404 -1 13 C-1.99 13.495 -1.99 13.495 -3 14 C-2.88512252 12.41590006 -2.75765492 10.83271037 -2.625 9.25 C-2.55539063 8.36828125 -2.48578125 7.4865625 -2.4140625 6.578125 C-2.00149945 4.00933618 -1.28839043 2.24158985 0 0 Z " fill="#EF8737" transform="translate(85,139)"/>
<path d="M0 0 C1.9375 0.375 1.9375 0.375 4 1 C4.33 1.66 4.66 2.32 5 3 C3.68 2.67 2.36 2.34 1 2 C1.495 2.598125 1.99 3.19625 2.5 3.8125 C4 6 4 6 4 9 C2.35 9.33 0.7 9.66 -1 10 C-1.33 9.01 -1.66 8.02 -2 7 C-0.68 7.33 0.64 7.66 2 8 C1.484375 7.4225 0.96875 6.845 0.4375 6.25 C-1 4 -1 4 -0.6875 1.75 C-0.460625 1.1725 -0.23375 0.595 0 0 Z " fill="#7890A3" transform="translate(205,57)"/>
<path d="M0 0 C1.65 0.33 3.3 0.66 5 1 C5 1.66 5 2.32 5 3 C3.68 2.67 2.36 2.34 1 2 C1 2.66 1 3.32 1 4 C2.32 4.66 3.64 5.32 5 6 C4.67 6.99 4.34 7.98 4 9 C2.35 9 0.7 9 -1 9 C-1 8.34 -1 7.68 -1 7 C0.32 7.33 1.64 7.66 3 8 C2.319375 7.4225 1.63875 6.845 0.9375 6.25 C0.298125 5.5075 -0.34125 4.765 -1 4 C-0.75 1.75 -0.75 1.75 0 0 Z " fill="#7C94A9" transform="translate(196,55)"/>
<path d="M0 0 C0 0.66 0 1.32 0 2 C-0.99 2 -1.98 2 -3 2 C-3 2.66 -3 3.32 -3 4 C-1.68 4.33 -0.36 4.66 1 5 C0.01 6.485 0.01 6.485 -1 8 C0.32 7.67 1.64 7.34 3 7 C3 7.66 3 8.32 3 9 C1.35 9.33 -0.3 9.66 -2 10 C-2.99 7.36 -3.98 4.72 -5 2 C-2 0 -2 0 0 0 Z " fill="#8097AB" transform="translate(143,62)"/>
<path d="M0 0 C0.33 1.65 0.66 3.3 1 5 C0.01 4.34 -0.98 3.68 -2 3 C-2 3.99 -2 4.98 -2 6 C-2.66 6 -3.32 6 -4 6 C-4 5.34 -4 4.68 -4 4 C-4.66 4 -5.32 4 -6 4 C-5.67 5.32 -5.34 6.64 -5 8 C-5.66 8 -6.32 8 -7 8 C-7.33 6.35 -7.66 4.7 -8 3 C-2.25 0 -2.25 0 0 0 Z " fill="#7891A7" transform="translate(263,102)"/>
<path d="M0 0 C1.32 0.66 2.64 1.32 4 2 C3.67 2.66 3.34 3.32 3 4 C2.01 3.34 1.02 2.68 0 2 C0.33 3.32 0.66 4.64 1 6 C-0.32 5.67 -1.64 5.34 -3 5 C-2.67 6.32 -2.34 7.64 -2 9 C-2.99 8.34 -3.98 7.68 -5 7 C-4.60196439 4.11424181 -4.20990931 3.17810487 -1.9375 1.25 C-1.298125 0.8375 -0.65875 0.425 0 0 Z " fill="#7992A8" transform="translate(249,85)"/>
<path d="M0 0 C3.3 0 6.6 0 10 0 C10.33 0.99 10.66 1.98 11 3 C7.37 3 3.74 3 0 3 C0 2.01 0 1.02 0 0 Z " fill="#0F8CAB" transform="translate(185,68)"/>
<path d="M0 0 C1.67542976 0.28604898 3.34385343 0.61781233 5 1 C4.67 2.32 4.34 3.64 4 5 C2.68 5.33 1.36 5.66 0 6 C-0.38218767 4.34385343 -0.71395102 2.67542976 -1 1 C-0.67 0.67 -0.34 0.34 0 0 Z " fill="#EBF0F4" transform="translate(217,64)"/>
<path d="M0 0 C0 0.66 0 1.32 0 2 C1.32 2.33 2.64 2.66 4 3 C-1.28 3 -6.56 3 -12 3 C-7.09396701 -0.67952474 -5.82490317 -0.29124516 0 0 Z " fill="#1E92AC" transform="translate(148,238)"/>
<path d="M0 0 C0 0.99 0 1.98 0 3 C-0.66 3 -1.32 3 -2 3 C-2.226875 3.556875 -2.45375 4.11375 -2.6875 4.6875 C-4.35896766 7.63246684 -6.55276352 9.68156544 -9 12 C-9 11.34 -9 10.68 -9 10 C-9.66 9.67 -10.32 9.34 -11 9 C-5.25 4 -5.25 4 -3 4 C-2.67 3.01 -2.34 2.02 -2 1 C-1.34 0.67 -0.68 0.34 0 0 Z " fill="#E5B994" transform="translate(91,214)"/>
<path d="M0 0 C-1.15173355 2.46800047 -2.04783565 4.04783565 -4 6 C-3.34 6.66 -2.68 7.32 -2 8 C-3.98 8 -5.96 8 -8 8 C-6.68 6.35 -5.36 4.7 -4 3 C-5.32 2.34 -6.64 1.68 -8 1 C-5.07175348 0.02391783 -3.04386724 -0.08226668 0 0 Z " fill="#61819B" transform="translate(272,128)"/>
<path d="M0 0 C1.98 0 3.96 0 6 0 C6.66 1.32 7.32 2.64 8 4 C1.375 4.25 1.375 4.25 -2 2 C-1.34 2 -0.68 2 0 2 C0 1.34 0 0.68 0 0 Z " fill="#EF893E" transform="translate(154,228)"/>
<path d="M0 0 C2.97 0.495 2.97 0.495 6 1 C6 2.65 6 4.3 6 6 C4.02 5.34 2.04 4.68 0 4 C0 2.68 0 1.36 0 0 Z " fill="#038DAF" transform="translate(145,140)"/>
<path d="M0 0 C2.97 0.495 2.97 0.495 6 1 C5.34 2.98 4.68 4.96 4 7 C2.68 6.67 1.36 6.34 0 6 C0 4.02 0 2.04 0 0 Z " fill="#E38949" transform="translate(194,133)"/>
<path d="M0 0 C0.66 0 1.32 0 2 0 C2.22223194 2.74086056 2.34781139 4.43963721 0.875 6.8125 C-1.77535957 8.49106106 -3.93246424 8.20450238 -7 8 C-3.25 5 -3.25 5 -1 5 C-0.67 3.35 -0.34 1.7 0 0 Z " fill="#1A8FAA" transform="translate(188,130)"/>
<path d="M0 0 C0.66 0 1.32 0 2 0 C4.60018816 3.90028225 4.15085514 7.47434569 4 12 C2 11 2 11 0.875 8.25 C0.08026605 5.29813104 -0.17810598 3.02780163 0 0 Z " fill="#ED8A3F" transform="translate(276,173)"/>
<path d="M0 0 C0.66 0.33 1.32 0.66 2 1 C1.01 2.485 1.01 2.485 0 4 C1.98 4 3.96 4 6 4 C2.91111478 6.05925681 2.29064073 6.2390374 -1.1875 6.125 C-3.0746875 6.063125 -3.0746875 6.063125 -5 6 C-3.35 4.02 -1.7 2.04 0 0 Z " fill="#45A0B4" transform="translate(205,159)"/>
<path d="M0 0 C0.8356429 2.9280927 1.16205486 5.58176143 1.1875 8.625 C1.20167969 9.40101563 1.21585937 10.17703125 1.23046875 10.9765625 C1 13 1 13 -1 15 C-3.01124138 10.97751725 -2.21604913 6.74266888 -1 2.5625 C-0.67 1.716875 -0.34 0.87125 0 0 Z " fill="#EA9B5F" transform="translate(103,132)"/>
<path d="M0 0 C0 0.66 0 1.32 0 2 C-0.99 2.33 -1.98 2.66 -3 3 C-3.33 3.66 -3.66 4.32 -4 5 C-3.01 4.67 -2.02 4.34 -1 4 C-1 5.65 -1 7.3 -1 9 C-1.66 9 -2.32 9 -3 9 C-3.66 8.01 -4.32 7.02 -5 6 C-5.99 5.34 -6.98 4.68 -8 4 C-2.25 0 -2.25 0 0 0 Z " fill="#6988A1" transform="translate(239,74)"/>
<path d="M0 0 C1.97883159 0.26712469 3.9367135 0.67971283 5.88671875 1.109375 C3.36191182 3.63418193 1.74848841 3.66676133 -1.73828125 4.234375 C-2.74117188 4.40195313 -3.7440625 4.56953125 -4.77734375 4.7421875 C-5.54820313 4.86335937 -6.3190625 4.98453125 -7.11328125 5.109375 C-3.25704446 0.16857162 -3.25704446 0.16857162 0 0 Z " fill="#E5A16B" transform="translate(71.11328125,231.890625)"/>
<path d="M0 0 C-2.97 1.65 -5.94 3.3 -9 5 C-9.66 4.34 -10.32 3.68 -11 3 C-11 2.34 -11 1.68 -11 1 C-9.5437328 0.63743142 -8.08488815 0.28520207 -6.625 -0.0625 C-5.40683594 -0.35833984 -5.40683594 -0.35833984 -4.1640625 -0.66015625 C-2 -1 -2 -1 0 0 Z " fill="#3899B0" transform="translate(224,211)"/>
<path d="M0 0 C3 3.625 3 3.625 3 7 C1.35 7 -0.3 7 -2 7 C-1.125 1.125 -1.125 1.125 0 0 Z " fill="#F9E9DC" transform="translate(103,259)"/>
<path d="M0 0 C-3.06246747 1.78409802 -5.22079273 2.22880021 -8.75 2.125 C-9.54921875 2.10695312 -10.3484375 2.08890625 -11.171875 2.0703125 C-11.77515625 2.04710937 -12.3784375 2.02390625 -13 2 C-9.16001987 -2.17389144 -5.07563763 -0.9001665 0 0 Z " fill="#2B96B0" transform="translate(285,240)"/>
<path d="M0 0 C2.64455995 3.96683992 3.28109187 7.15282485 2.5625 11.875 C2.376875 12.57625 2.19125 13.2775 2 14 C1.67 14 1.34 14 1 14 C1 11.36 1 8.72 1 6 C0.34 6 -0.32 6 -1 6 C-0.67 4.02 -0.34 2.04 0 0 Z " fill="#ECA977" transform="translate(100,142)"/>
<path d="M0 0 C0.99 0.33 1.98 0.66 3 1 C3 2.98 3 4.96 3 7 C1.68 7 0.36 7 -1 7 C-0.67 4.69 -0.34 2.38 0 0 Z " fill="#FAEBE0" transform="translate(156,259)"/>
<path d="M0 0 C1.7074998 1.28062485 3.37373596 2.61767557 5 4 C5 4.66 5 5.32 5 6 C1.37 6 -2.26 6 -6 6 C-6 5.67 -6 5.34 -6 5 C-4.02 4.67 -2.04 4.34 0 4 C0 2.68 0 1.36 0 0 Z " fill="#389BAE" transform="translate(158,160)"/>
<path d="M0 0 C0.66 0 1.32 0 2 0 C2 4.95 2 9.9 2 15 C1.67 15 1.34 15 1 15 C0.93941406 14.39671875 0.87882812 13.7934375 0.81640625 13.171875 C0.69072266 11.97304687 0.69072266 11.97304687 0.5625 10.75 C0.48128906 9.96109375 0.40007812 9.1721875 0.31640625 8.359375 C0.05536338 6.0104271 0.05536338 6.0104271 -0.59765625 3.828125 C-1 2 -1 2 0 0 Z " fill="#ED9D63" transform="translate(99,148)"/>
<path d="M0 0 C0.33 0 0.66 0 1 0 C1.25 6.625 1.25 6.625 -1 10 C-1.99 10 -2.98 10 -4 10 C-2.99806563 6.20696275 -2.18975773 3.28463659 0 0 Z " fill="#FAF1E7" transform="translate(97,114)"/>
<path d="M0 0 C1.32 0.66 2.64 1.32 4 2 C3.67 3.32 3.34 4.64 3 6 C1.68 5.67 0.36 5.34 -1 5 C-0.67 3.35 -0.34 1.7 0 0 Z " fill="#F5F8F9" transform="translate(125,74)"/>
<path d="M0 0 C1.65 0 3.3 0 5 0 C5.33 1.32 5.66 2.64 6 4 C5.01 4.66 4.02 5.32 3 6 C0 2.25 0 2.25 0 0 Z " fill="#EAEFF2" transform="translate(131,69)"/>
<path d="M0 0 C1.32 0 2.64 0 4 0 C4 1.65 4 3.3 4 5 C2.35 5 0.7 5 -1 5 C-0.67 3.35 -0.34 1.7 0 0 Z " fill="#F1F5F7" transform="translate(155,59)"/>
<path d="M0 0 C0.66 0 1.32 0 2 0 C2 2.64 2 5.28 2 8 C1.01 8 0.02 8 -1 8 C-1.93065133 5.39417629 -2.14917407 4.35801776 -1.0625 1.75 C-0.711875 1.1725 -0.36125 0.595 0 0 Z " fill="#356799" transform="translate(232,289)"/>
<path d="M0 0 C4.2742558 1.5830577 6.26531794 4.50568404 9 8 C6 8 6 8 4.39453125 6.50390625 C3.61142578 5.54291016 3.61142578 5.54291016 2.8125 4.5625 C2.28269531 3.92441406 1.75289063 3.28632813 1.20703125 2.62890625 C0 1 0 1 0 0 Z " fill="#E1B999" transform="translate(271,215)"/>
<path d="M0 0 C1.4370809 -0.05422947 2.87475462 -0.09289723 4.3125 -0.125 C5.11300781 -0.14820312 5.91351563 -0.17140625 6.73828125 -0.1953125 C9 0 9 0 12 2 C12 2.99 12 3.98 12 5 C10.0625 4.625 10.0625 4.625 8 4 C7.67 3.34 7.34 2.68 7 2 C4.67843403 1.59270772 2.3431213 1.25561323 0 1 C0 0.67 0 0.34 0 0 Z " fill="#3C9BB1" transform="translate(177,119)"/>
<path d="M0 0 C0.66 0 1.32 0 2 0 C2.33 2.31 2.66 4.62 3 7 C1.68 7 0.36 7 -1 7 C-0.67 4.69 -0.34 2.38 0 0 Z " fill="#FAF1E8" transform="translate(243,259)"/>
<path d="M0 0 C0.99 0.33 1.98 0.66 3 1 C3 2.98 3 4.96 3 7 C2.01 7.33 1.02 7.66 0 8 C0 5.36 0 2.72 0 0 Z " fill="#EE893E" transform="translate(264,178)"/>
<path d="M0 0 C1.32 0.33 2.64 0.66 4 1 C4 1.66 4 2.32 4 3 C4.66 3.33 5.32 3.66 6 4 C6 5.32 6 6.64 6 8 C5.34 8 4.68 8 4 8 C0 2.58823529 0 2.58823529 0 0 Z " fill="#6B889F" transform="translate(108,88)"/>
<path d="M0 0 C2.31 0.66 4.62 1.32 7 2 C7 2.66 7 3.32 7 4 C5.02 4 3.04 4 1 4 C0.67 2.68 0.34 1.36 0 0 Z " fill="#577A99" transform="translate(228,304)"/>
<path d="M0 0 C0.66 0 1.32 0 2 0 C2.33 1.98 2.66 3.96 3 6 C1.68 6 0.36 6 -1 6 C-0.67 4.02 -0.34 2.04 0 0 Z " fill="#D9E1E8" transform="translate(200,293)"/>
<path d="M0 0 C1.98 0.495 1.98 0.495 4 1 C4 2.32 4 3.64 4 5 C2.35 5 0.7 5 -1 5 C-0.67 3.35 -0.34 1.7 0 0 Z " fill="#F38634" transform="translate(233,270)"/>
<path d="M0 0 C1.65 1.65 3.3 3.3 5 5 C4.236875 5.28875 3.47375 5.5775 2.6875 5.875 C-0.15029308 6.96269013 -0.15029308 6.96269013 -3 9 C-2.690625 8.443125 -2.38125 7.88625 -2.0625 7.3125 C-0.94238179 4.87459567 -0.43962636 2.63775814 0 0 Z " fill="#7189A0" transform="translate(243,78)"/>
<path d="M0 0 C0.33 1.32 0.66 2.64 1 4 C4.62885324 4.15149298 4.62885324 4.15149298 8 3 C7.34 4.32 6.68 5.64 6 7 C1.125 6.125 1.125 6.125 0 5 C-0.04063832 3.33382885 -0.042721 1.66611905 0 0 Z " fill="#728CA2" transform="translate(122,75)"/>
<path d="M0 0 C0.66 0.33 1.32 0.66 2 1 C1.37240135 3.92879371 0.41377341 6.36095629 -1 9 C-1.33 6.69 -1.66 4.38 -2 2 C-1.34 2 -0.68 2 0 2 C0 1.34 0 0.68 0 0 Z " fill="#E9A670" transform="translate(84,165)"/>
<path d="M0 0 C0.625 1.8125 0.625 1.8125 1 4 C0.01 5.485 0.01 5.485 -1 7 C-1.99 7 -2.98 7 -4 7 C-3.39816251 4.97954558 -2.72693904 2.97888961 -2 1 C-1.34 0.67 -0.68 0.34 0 0 Z " fill="#F9F1E9" transform="translate(106,119)"/>
<path d="M0 0 C0 0.66 0 1.32 0 2 C-2.64 2 -5.28 2 -8 2 C-6.14210462 -1.71579076 -3.44525918 -1.06921837 0 0 Z " fill="#0789A9" transform="translate(92,239)"/>
<path d="M0 0 C0.33 0 0.66 0 1 0 C1 5.94 1 11.88 1 18 C0.67 18 0.34 18 0 18 C0 12.06 0 6.12 0 0 Z " fill="#FFFFFF" transform="translate(343,192)"/>
<path d="M0 0 C1.9375 0.6875 1.9375 0.6875 4 2 C4.75 4.625 4.75 4.625 5 7 C3.0625 6.3125 3.0625 6.3125 1 5 C0.25 2.375 0.25 2.375 0 0 Z " fill="#EB8C49" transform="translate(271,164)"/>
<path d="M0 0 C2.0625 0.4375 2.0625 0.4375 4 1 C2.625 3.5 2.625 3.5 1 6 C0.34 6 -0.32 6 -1 6 C-1.042721 4.33388095 -1.04063832 2.66617115 -1 1 C-0.67 0.67 -0.34 0.34 0 0 Z " fill="#91A9BB" transform="translate(261,113)"/>
<path d="M0 0 C1.65 0 3.3 0 5 0 C5 0.66 5 1.32 5 2 C6.32 2.66 7.64 3.32 9 4 C3.46153846 3.38461538 3.46153846 3.38461538 1.125 1.4375 C0.75375 0.963125 0.3825 0.48875 0 0 Z " fill="#3198B3" transform="translate(153,217)"/>
<path d="M0 0 C-0.33 0.99 -0.66 1.98 -1 3 C-3.64 3 -6.28 3 -9 3 C-6.38997624 -0.48003168 -4.1689578 -0.27793052 0 0 Z " fill="#B0BFCC" transform="translate(273,134)"/>
<path d="M0 0 C0.66 0.33 1.32 0.66 2 1 C1.38125 1.433125 0.7625 1.86625 0.125 2.3125 C-2.2197245 3.99740483 -2.2197245 3.99740483 -4 7 C-4.33 5.68 -4.66 4.36 -5 3 C-2.625 1.4375 -2.625 1.4375 0 0 Z " fill="#6F8AA0" transform="translate(257,97)"/>
<path d="M0 0 C0.66 0 1.32 0 2 0 C2 0.66 2 1.32 2 2 C2.66 2 3.32 2 4 2 C3.67 3.32 3.34 4.64 3 6 C2.34 5.67 1.68 5.34 1 5 C1 4.34 1 3.68 1 3 C0.34 3 -0.32 3 -1 3 C-0.67 2.01 -0.34 1.02 0 0 Z " fill="#CED9E1" transform="translate(117,81)"/>
<path d="M0 0 C2.97 0.495 2.97 0.495 6 1 C2.3558226 3.4294516 0.28758728 3.16179575 -4 3 C-2.68 2.67 -1.36 2.34 0 2 C0 1.34 0 0.68 0 0 Z " fill="#68ADBD" transform="translate(196,69)"/>
<path d="M0 0 C1.98 0.99 1.98 0.99 4 2 C2.68 2.33 1.36 2.66 0 3 C0 2.01 0 1.02 0 0 Z " fill="#FFFFFF" transform="translate(339,310)"/>
<path d="M0 0 C0.33 0.66 0.66 1.32 1 2 C0.34 2.66 -0.32 3.32 -1 4 C-0.67 2.68 -0.34 1.36 0 0 Z " fill="#FFFFFF" transform="translate(343,295)"/>
<path d="M0 0 C0.99 1.485 0.99 1.485 2 3 C1.01 3.495 1.01 3.495 0 4 C0 2.68 0 1.36 0 0 Z " fill="#FFFFFF" transform="translate(18,60)"/>
<path d="M0 0 C0.33 0.66 0.66 1.32 1 2 C1.66 2.33 2.32 2.66 3 3 C2.01 3 1.02 3 0 3 C0 2.01 0 1.02 0 0 Z " fill="#FFFFFF" transform="translate(323,27)"/>
<path d="M0 0 C0.66 0.66 1.32 1.32 2 2 C1.01 2.495 1.01 2.495 0 3 C0 2.01 0 1.02 0 0 Z " fill="#FFFFFF" transform="translate(51,340)"/>
<path d="M0 0 C1 4 1 4 1 4 Z " fill="#FFFFFF" transform="translate(326,332)"/>
<path d="M0 0 C0 3 0 3 0 3 Z " fill="#FFFFFF" transform="translate(31,325)"/>
<path d="M0 0 C1 4 1 4 1 4 Z " fill="#FFFFFF" transform="translate(332,323)"/>
<path d="M0 0 C0.99 0.33 1.98 0.66 3 1 C2.01 1 1.02 1 0 1 C0 0.67 0 0.34 0 0 Z " fill="#FFFFFF" transform="translate(340,52)"/>
<path d="M0 0 C0.99 0.495 0.99 0.495 2 1 C1.67 1.66 1.34 2.32 1 3 C0.67 2.01 0.34 1.02 0 0 Z " fill="#FFFFFF" transform="translate(339,48)"/>
<path d="M0 0 C0.99 0 1.98 0 3 0 C2.67 0.66 2.34 1.32 2 2 C1.34 1.34 0.68 0.68 0 0 Z " fill="#FFFFFF" transform="translate(327,32)"/>
<path d="M0 0 C3 1 3 1 3 1 Z " fill="#FFFFFF" transform="translate(36,332)"/>
<path d="M0 0 C0.66 0.66 1.32 1.32 2 2 C1.34 2 0.68 2 0 2 C0 1.34 0 0.68 0 0 Z " fill="#FFFFFF" transform="translate(17,309)"/>
<path d="" fill="#FFFFFF" transform="translate(0,0)"/>
<path d="" fill="#FFFFFF" transform="translate(0,0)"/>
<path d="M0 0 C0.33 0.66 0.66 1.32 1 2 C0.34 1.67 -0.32 1.34 -1 1 C-0.67 0.67 -0.34 0.34 0 0 Z " fill="#FFFFFF" transform="translate(332,33)"/>
<path d="M0 0 C0.99 0.495 0.99 0.495 2 1 C1.01 1.495 1.01 1.495 0 2 C0 1.34 0 0.68 0 0 Z " fill="#FFFFFF" transform="translate(321,26)"/>
<path d="M0 0 C0.33 0.66 0.66 1.32 1 2 C0.34 1.67 -0.32 1.34 -1 1 C-0.67 0.67 -0.34 0.34 0 0 Z " fill="#FFFFFF" transform="translate(50,21)"/>
<path d="M0 0 C2 1 2 1 2 1 Z " fill="#FFFFFF" transform="translate(300,343)"/>
<path d="" fill="#FFFFFF" transform="translate(0,0)"/>
<path d="" fill="#FFFFFF" transform="translate(0,0)"/>
<path d="" fill="#FFFFFF" transform="translate(0,0)"/>
<path d="" fill="#FFFFFF" transform="translate(0,0)"/>
<path d="" fill="#FFFFFF" transform="translate(0,0)"/>
<path d="" fill="#FFFFFF" transform="translate(0,0)"/>
<path d="" fill="#FFFFFF" transform="translate(0,0)"/>
<path d="" fill="#FFFFFF" transform="translate(0,0)"/>
<path d="M0 0 C2 1 2 1 2 1 Z " fill="#FFFFFF" transform="translate(340,308)"/>
<path d="" fill="#FFFFFF" transform="translate(0,0)"/>
<path d="M0 0 C2 1 2 1 2 1 Z " fill="#FFFFFF" transform="translate(17,299)"/>
<path d="" fill="#FFFFFF" transform="translate(0,0)"/>
<path d="M0 0 C2 1 2 1 2 1 Z " fill="#FFFFFF" transform="translate(342,60)"/>
<path d="" fill="#FFFFFF" transform="translate(0,0)"/>
<path d="M0 0 C2 1 2 1 2 1 Z " fill="#FFFFFF" transform="translate(329,35)"/>
<path d="M0 0 C2 1 2 1 2 1 Z " fill="#FFFFFF" transform="translate(316,24)"/>
<path d="" fill="#FFFFFF" transform="translate(0,0)"/>
<path d="" fill="#FFFFFF" transform="translate(0,0)"/>
<path d="" fill="#FFFFFF" transform="translate(0,0)"/>
<path d="" fill="#FFFFFF" transform="translate(0,0)"/>
<path d="" fill="#FFFFFF" transform="translate(0,0)"/>
<path d="" fill="#FFFFFF" transform="translate(0,0)"/>
<path d="" fill="#FFFFFF" transform="translate(0,0)"/>
<path d="" fill="#FFFFFF" transform="translate(0,0)"/>
<path d="" fill="#FFFFFF" transform="translate(0,0)"/>
<path d="" fill="#FFFFFF" transform="translate(0,0)"/>
<path d="" fill="#FFFFFF" transform="translate(0,0)"/>
<path d="" fill="#FFFFFF" transform="translate(0,0)"/>
<path d="" fill="#FFFFFF" transform="translate(0,0)"/>
<path d="" fill="#FFFFFF" transform="translate(0,0)"/>
<path d="" fill="#FFFFFF" transform="translate(0,0)"/>
<path d="" fill="#FFFFFF" transform="translate(0,0)"/>
<path d="" fill="#FFFFFF" transform="translate(0,0)"/>
<path d="" fill="#FFFFFF" transform="translate(0,0)"/>
<path d="" fill="#FFFFFF" transform="translate(0,0)"/>
<path d="" fill="#FFFFFF" transform="translate(0,0)"/>
<path d="" fill="#FFFFFF" transform="translate(0,0)"/>
<path d="" fill="#FFFFFF" transform="translate(0,0)"/>
<path d="" fill="#FFFFFF" transform="translate(0,0)"/>
<path d="" fill="#FFFFFF" transform="translate(0,0)"/>
<path d="" fill="#FFFFFF" transform="translate(0,0)"/>
</svg>
